<?xml version="1.0" encoding="UTF-8"?>
<!DOCTYPE svg PUBLIC "-//W3C//DTD SVG 1.1//EN" "http://www.w3.org/Graphics/SVG/1.1/DTD/svg11.dtd">
<!-- Creator: CorelDRAW 2020 (64 Bit) -->
<svg xmlns="http://www.w3.org/2000/svg" xml:space="preserve" width="7.9102mm" height="9.6114mm" version="1.1" style="shape-rendering:geometricPrecision; text-rendering:geometricPrecision; image-rendering:optimizeQuality; fill-rule:evenodd; clip-rule:evenodd"
viewBox="0 0 3.42 4.16"
 xmlns:xlink="http://www.w3.org/1999/xlink"
 xmlns:xodm="http://www.corel.com/coreldraw/odm/2003">
 <defs>
  <style type="text/css">
   <![CDATA[
    .fil0 {fill:#373435;fill-rule:nonzero}
   ]]>
  </style>
 </defs>
 <g id="Camada_x0020_1">
  <metadata id="CorelCorpID_0Corel-Layer"/>
  <g id="_2462850793632">
   <path class="fil0" d="M2.35 3.98l-2.02 0c-0.08,0 -0.15,-0.07 -0.15,-0.15l0 -3.5c0,-0.08 0.07,-0.15 0.15,-0.15l2.77 0c0.08,0 0.15,0.07 0.15,0.15l0 2.81 -0.43 0c-0.26,0 -0.46,0.21 -0.46,0.46l0 0.37zm0.23 -0.1l0 -0.3c0,-0.12 0.1,-0.23 0.23,-0.23l0.33 0 -0.56 0.53zm-0.08 0.26l0 0c0.02,0 0.04,-0.01 0.05,-0.02l0.83 -0.78c0.02,-0.01 0.02,-0.04 0.02,-0.06 0.01,-0.01 0.01,-0.03 0.01,-0.05l0 -2.9c0,-0.18 -0.15,-0.33 -0.33,-0.33l-2.77 0c-0.18,0 -0.33,0.15 -0.33,0.33l0 3.5c0,0.18 0.15,0.33 0.33,0.33l2.11 0c0.02,0 0.04,-0.01 0.06,-0.02z"/>
   <path class="fil0" d="M0.73 0.97l1.97 0 0 0.13 -1.97 0 0 -0.13zm-0.02 0.24l2 0c0.05,0 0.09,-0.04 0.09,-0.09l0 -0.16c0,-0.05 -0.04,-0.09 -0.09,-0.09l-2 0c-0.05,0 -0.09,0.04 -0.09,0.09l0 0.16c0,0.05 0.04,0.09 0.09,0.09z"/>
   <path class="fil0" d="M0.73 1.54l1.97 0 0 0.13 -1.97 0 0 -0.13zm-0.02 0.24l2 0c0.05,0 0.09,-0.04 0.09,-0.09l0 -0.16c0,-0.05 -0.04,-0.09 -0.09,-0.09l-2 0c-0.05,0 -0.09,0.04 -0.09,0.09l0 0.16c0,0.05 0.04,0.09 0.09,0.09z"/>
   <path class="fil0" d="M2.69 2.24l-1.97 0 0 -0.13 1.97 0 0 0.13zm0.11 0.02l0 -0.16c0,-0.05 -0.04,-0.09 -0.09,-0.09l-2 0c-0.05,0 -0.09,0.04 -0.09,0.09l0 0.16c0,0.05 0.04,0.09 0.09,0.09l2 0c0.05,0 0.09,-0.04 0.09,-0.09z"/>
  </g>
 </g>
</svg>
