<?xml version="1.0" encoding="UTF-8"?>
<!DOCTYPE svg PUBLIC "-//W3C//DTD SVG 1.1//EN" "http://www.w3.org/Graphics/SVG/1.1/DTD/svg11.dtd">
<!-- Creator: CorelDRAW 2020 (64 Bit) -->
<svg xmlns="http://www.w3.org/2000/svg" xml:space="preserve" width="6.5314mm" height="9.2048mm" version="1.1" style="shape-rendering:geometricPrecision; text-rendering:geometricPrecision; image-rendering:optimizeQuality; fill-rule:evenodd; clip-rule:evenodd"
viewBox="0 0 2.19 3.09"
 xmlns:xlink="http://www.w3.org/1999/xlink"
 xmlns:xodm="http://www.corel.com/coreldraw/odm/2003">
 <defs>
  <style type="text/css">
   <![CDATA[
    .fil0 {fill:#373435;fill-rule:nonzero}
   ]]>
  </style>
 </defs>
 <g id="Camada_x0020_1">
  <metadata id="CorelCorpID_0Corel-Layer"/>
  <path class="fil0" d="M1.75 1.82c-0.01,-0.01 -0.03,-0.02 -0.05,-0.02 -0.02,-0 -0.03,0 -0.05,0.02l-0 0c-0.04,0.02 -0.57,0.41 -1.07,-0 -0.01,-0.01 -0.03,-0.02 -0.05,-0.02 -0.02,0 -0.03,0.01 -0.05,0.02 -0.01,0.01 -0.13,0.11 -0.24,0.31 -0.12,0.2 -0.23,0.49 -0.24,0.89 -0,0.01 0,0.02 0.01,0.03 0,0.01 0.01,0.02 0.02,0.02l0 0c0.01,0.01 0.02,0.01 0.02,0.02 0.01,0 0.02,0.01 0.03,0.01l2.04 -0c0.02,-0 0.04,-0.01 0.05,-0.02 0.01,-0.01 0.02,-0.03 0.02,-0.05 0,-0.02 0.01,-0.35 -0.12,-0.7 -0.07,-0.18 -0.17,-0.36 -0.32,-0.5zm-1.26 -1.57c-0.08,0.08 -0.14,0.18 -0.19,0.28 -0.04,0.1 -0.06,0.21 -0.06,0.33 -0,0.24 0.1,0.45 0.25,0.6 0.15,0.15 0.37,0.25 0.6,0.25 0.11,0 0.23,-0.02 0.33,-0.06 0.1,-0.04 0.2,-0.11 0.28,-0.19 0.08,-0.08 0.14,-0.18 0.19,-0.28 0.04,-0.1 0.06,-0.21 0.06,-0.33 -0,-0.24 -0.1,-0.45 -0.25,-0.61 -0.15,-0.15 -0.37,-0.25 -0.6,-0.25 -0.11,0 -0.23,0.02 -0.33,0.06 -0.1,0.04 -0.2,0.11 -0.28,0.19zm1.31 0.6c0,0.09 -0.02,0.18 -0.05,0.27 -0.04,0.08 -0.09,0.16 -0.15,0.23 -0.07,0.07 -0.14,0.12 -0.23,0.15 -0.08,0.03 -0.18,0.05 -0.27,0.05 -0.19,0 -0.37,-0.08 -0.5,-0.21 -0.13,-0.13 -0.21,-0.3 -0.21,-0.5 -0,-0.09 0.02,-0.18 0.05,-0.27 0.03,-0.08 0.09,-0.16 0.15,-0.23 0.07,-0.07 0.14,-0.12 0.23,-0.15 0.08,-0.03 0.18,-0.05 0.27,-0.05 0.19,0 0.37,0.08 0.5,0.21 0.13,0.13 0.21,0.3 0.21,0.5zm-1.64 2.03c0.02,-0.19 0.06,-0.35 0.11,-0.48 0.08,-0.19 0.17,-0.33 0.24,-0.4l0.02 -0.03 0.03 0.02c0.18,0.12 0.36,0.16 0.53,0.16 0.23,-0 0.43,-0.08 0.57,-0.16l0.03 -0.02 0.02 0.03c0.13,0.14 0.2,0.32 0.25,0.48 0.05,0.16 0.06,0.31 0.07,0.41l0 0.05 -1.89 0 0 -0.05z"/>
 </g>
</svg>
