<?xml version="1.0" encoding="UTF-8"?>
<!DOCTYPE svg PUBLIC "-//W3C//DTD SVG 1.1//EN" "http://www.w3.org/Graphics/SVG/1.1/DTD/svg11.dtd">
<!-- Creator: CorelDRAW 2020 (64 Bit) -->
<svg xmlns="http://www.w3.org/2000/svg" xml:space="preserve" width="10.4117mm" height="10mm" version="1.1" style="shape-rendering:geometricPrecision; text-rendering:geometricPrecision; image-rendering:optimizeQuality; fill-rule:evenodd; clip-rule:evenodd"
viewBox="0 0 6.11 5.87"
 xmlns:xlink="http://www.w3.org/1999/xlink"
 xmlns:xodm="http://www.corel.com/coreldraw/odm/2003">
 <defs>
  <style type="text/css">
   <![CDATA[
    .fil0 {fill:#373435;fill-rule:nonzero}
   ]]>
  </style>
 </defs>
 <g id="Camada_x0020_1">
  <metadata id="CorelCorpID_0Corel-Layer"/>
  <path class="fil0" d="M1.51 5.87l3.09 0c0.17,0 0.32,-0.07 0.43,-0.18 0.11,-0.11 0.18,-0.26 0.18,-0.43l0 -1.76 0.27 0.27c0.03,0.03 0.06,0.04 0.09,0.04 0.03,-0 0.07,-0.01 0.09,-0.04l0.29 -0.29c0.12,-0.12 0.17,-0.28 0.17,-0.44 0,-0.16 -0.06,-0.32 -0.18,-0.45l-2.42 -2.43c-0.06,-0.06 -0.13,-0.11 -0.21,-0.14 -0.08,-0.03 -0.16,-0.05 -0.24,-0.05 -0.09,0 -0.17,0.02 -0.24,0.05 -0.08,0.03 -0.15,0.08 -0.21,0.14l-2.42 2.43c-0.12,0.12 -0.19,0.29 -0.19,0.45 0,0.16 0.06,0.32 0.18,0.45l0.28 0.28c0.01,0.01 0.03,0.02 0.04,0.03 0.02,0.01 0.03,0.01 0.05,0.01 0.02,0 0.03,-0 0.05,-0.01 0.01,-0.01 0.03,-0.02 0.04,-0.03l0.27 -0.27 0 1.76c0,0.17 0.07,0.32 0.18,0.43 0.11,0.11 0.26,0.18 0.43,0.18zm-1.03 -2.43l-0.12 -0.12c-0.07,-0.07 -0.11,-0.17 -0.11,-0.27 0,-0.1 0.04,-0.19 0.11,-0.26l2.42 -2.43c0.07,-0.07 0.17,-0.11 0.27,-0.11 0.1,0 0.19,0.04 0.27,0.11l2.42 2.42c0.07,0.07 0.11,0.17 0.11,0.27 0,0.1 -0.04,0.19 -0.11,0.26l-0.19 0.19 -2.41 -2.41c-0.01,-0.01 -0.03,-0.02 -0.04,-0.03 -0.02,-0.01 -0.03,-0.01 -0.05,-0.01 -0.02,0 -0.03,0 -0.05,0.01 -0.01,0.01 -0.03,0.02 -0.04,0.03l-2.41 2.41 -0.07 -0.07zm4.46 1.83c0,0.09 -0.04,0.18 -0.1,0.24 -0.06,0.06 -0.15,0.1 -0.24,0.1l-3.09 0c-0.09,0 -0.18,-0.04 -0.24,-0.1 -0.06,-0.06 -0.1,-0.15 -0.1,-0.24l0 -2.01 1.89 -1.89 1.89 1.89 0 2.01z"/>
 </g>
</svg>
