<?xml version="1.0" encoding="UTF-8"?>
<!DOCTYPE svg PUBLIC "-//W3C//DTD SVG 1.1//EN" "http://www.w3.org/Graphics/SVG/1.1/DTD/svg11.dtd">
<!-- Creator: CorelDRAW 2020 (64 Bit) -->
<svg xmlns="http://www.w3.org/2000/svg" xml:space="preserve" width="10.8572mm" height="9.4592mm" version="1.1" style="shape-rendering:geometricPrecision; text-rendering:geometricPrecision; image-rendering:optimizeQuality; fill-rule:evenodd; clip-rule:evenodd"
viewBox="0 0 6.25 5.44"
 xmlns:xlink="http://www.w3.org/1999/xlink"
 xmlns:xodm="http://www.corel.com/coreldraw/odm/2003">
 <defs>
  <style type="text/css">
   <![CDATA[
    .fil0 {fill:#373435;fill-rule:nonzero}
   ]]>
  </style>
 </defs>
 <g id="Camada_x0020_1">
  <metadata id="CorelCorpID_0Corel-Layer"/>
  <g id="_2462850691776">
   <path class="fil0" d="M3.69 4.39l-0.03 0 0.02 0.04 -0.67 0.7 -2.32 -2.45c-0.58,-0.53 -0.62,-1.47 -0.08,-2.05 0.65,-0.69 1.73,-0.45 2.1,0.41 0.11,0.27 0.48,0.27 0.59,-0 0.37,-0.86 1.45,-1.1 2.1,-0.41 0.51,0.55 0.51,1.43 0,1.97l0 0 -0.02 0.02 -0.02 -0.01 -0.02 0.05c0.12,-0 0.2,0.06 0.24,0.14l0.04 -0.03 -0.03 -0.03c0.58,-0.64 0.58,-1.65 -0.02,-2.28 -0.77,-0.82 -2.06,-0.54 -2.49,0.48 0,0.04 -0.11,0.09 -0.15,0 -0.44,-1.03 -1.73,-1.3 -2.49,-0.48 -0.63,0.68 -0.59,1.77 0.09,2.39l2.39 2.53c0.05,0.05 0.13,0.05 0.18,0l0.72 -0.8c-0.07,-0.05 -0.12,-0.12 -0.13,-0.21z"/>
   <path class="fil0" d="M5.38 3.69l0.25 0 0 0.39 -0.59 0 0 0.63 -0.35 0 0 -0.63 -0.6 0 0 -0.39 0.6 0 0 -0.63 0.35 0 0 0.63 0.34 0zm-0.18 -0.8l-0.68 0 0 0.63 -0.59 0 0 0.71 0.59 0 0 0.63 0.68 0 0 -0.63 0.59 0 0 -0.71 -0.59 0 0 -0.63z"/>
   <path class="fil0" d="M4.86 2.49c0.38,0 0.73,0.16 0.98,0.41 0.25,0.25 0.41,0.6 0.41,0.98 0,0.38 -0.16,0.73 -0.41,0.98 -0.25,0.25 -0.6,0.41 -0.98,0.41 -0.38,0 -0.73,-0.16 -0.98,-0.41 -0.25,-0.25 -0.41,-0.6 -0.41,-0.98 0,-0.38 0.16,-0.73 0.41,-0.98 0.25,-0.25 0.6,-0.41 0.98,-0.41zm0.84 0.55c-0.21,-0.21 -0.51,-0.35 -0.84,-0.35 -0.33,0 -0.62,0.13 -0.84,0.35 -0.21,0.21 -0.35,0.51 -0.35,0.84 0,0.33 0.13,0.62 0.35,0.84 0.21,0.21 0.51,0.35 0.84,0.35 0.33,0 0.62,-0.13 0.84,-0.35 0.21,-0.21 0.35,-0.51 0.35,-0.84 0,-0.33 -0.13,-0.62 -0.35,-0.84z"/>
  </g>
 </g>
</svg>
