<?xml version="1.0" encoding="UTF-8"?>
<!DOCTYPE svg PUBLIC "-//W3C//DTD SVG 1.1//EN" "http://www.w3.org/Graphics/SVG/1.1/DTD/svg11.dtd">
<!-- Creator: CorelDRAW 2020 (64 Bit) -->
<svg xmlns="http://www.w3.org/2000/svg" xml:space="preserve" width="18.1629mm" height="19.1584mm" version="1.1" style="shape-rendering:geometricPrecision; text-rendering:geometricPrecision; image-rendering:optimizeQuality; fill-rule:evenodd; clip-rule:evenodd"
viewBox="0 0 16.39 17.29"
 xmlns:xlink="http://www.w3.org/1999/xlink"
 xmlns:xodm="http://www.corel.com/coreldraw/odm/2003">
 <defs>
  <style type="text/css">
   <![CDATA[
    .fil0 {fill:#FEFEFE;fill-rule:nonzero}
   ]]>
  </style>
 </defs>
 <g id="Camada_x0020_1">
  <metadata id="CorelCorpID_0Corel-Layer"/>
  <g id="_2546086992768">
   <path class="fil0" d="M6.83 10.67c-1.07,0.23 -2.43,0.17 -3.75,-0.9 -0.08,-0.06 -0.17,-0.09 -0.26,-0.09 -0.09,0 -0.19,0.04 -0.26,0.1 -0.07,0.06 -0.68,0.61 -1.29,1.66 -0.62,1.07 -1.24,2.66 -1.27,4.77 -0,0.05 0.01,0.11 0.03,0.16 0.02,0.05 0.05,0.09 0.08,0.13l0.01 0.01c0.04,0.04 0.08,0.07 0.13,0.09 0.05,0.02 0.1,0.03 0.16,0.03l8.14 -0.01c-0.01,-0.07 -0.01,-0.14 0.01,-0.22l0.16 -0.59 -7.9 0 0.02 -0.25c0.08,-1.01 0.31,-1.88 0.59,-2.59 0.41,-1.05 0.94,-1.77 1.29,-2.18l0.13 -0.15 0.17 0.11c0.95,0.63 1.92,0.86 2.83,0.85 0.25,-0 0.5,-0.02 0.74,-0.05l0.23 -0.87zm4.81 3.69c-0.09,-0.57 -0.25,-1.22 -0.49,-1.88 -0.15,-0.42 -0.35,-0.84 -0.59,-1.24 -0.25,0.2 -0.42,0.46 -0.53,0.74 0.23,0.45 0.4,0.92 0.54,1.37 0.08,0.26 0.14,0.52 0.19,0.76 0.15,0.09 0.32,0.16 0.49,0.2 0.13,0.03 0.26,0.05 0.4,0.05zm-9 -13c-0.44,0.44 -0.77,0.94 -1,1.49 -0.23,0.55 -0.35,1.14 -0.35,1.76 -0,1.27 0.52,2.42 1.35,3.25 0.83,0.83 1.98,1.35 3.25,1.35 0.62,0 1.21,-0.12 1.76,-0.35 0.55,-0.23 1.06,-0.57 1.49,-1 0.44,-0.44 0.77,-0.94 1,-1.49 0.23,-0.55 0.35,-1.14 0.35,-1.76 -0,-1.27 -0.52,-2.42 -1.35,-3.26 -0.83,-0.83 -1.98,-1.35 -3.25,-1.35 -0.62,0 -1.21,0.12 -1.76,0.35 -0.55,0.23 -1.06,0.57 -1.49,1.01zm7.04 3.25c0,0.5 -0.1,0.99 -0.29,1.45 -0.19,0.45 -0.47,0.87 -0.82,1.23 -0.36,0.36 -0.78,0.64 -1.23,0.82 -0.45,0.19 -0.94,0.29 -1.45,0.29 -1.04,0 -1.99,-0.43 -2.68,-1.11 -0.69,-0.68 -1.11,-1.63 -1.11,-2.68 -0,-0.5 0.1,-0.99 0.29,-1.45 0.19,-0.45 0.47,-0.87 0.82,-1.23 0.36,-0.36 0.78,-0.64 1.23,-0.82 0.45,-0.19 0.94,-0.29 1.45,-0.29 1.04,0 1.99,0.43 2.68,1.11 0.69,0.69 1.11,1.63 1.11,2.68z"/>
   <path class="fil0" d="M13.01 14.49c-0.1,0.07 -0.2,0.12 -0.3,0.18 -1,0.5 -2.25,0.21 -2.91,-0.74 -0.73,-1.04 -0.48,-2.48 0.56,-3.21 0.09,-0.06 0.19,-0.12 0.28,-0.17 1.01,-0.51 2.26,-0.23 2.93,0.73 0.73,1.04 0.48,2.48 -0.56,3.21zm3.38 -1.58l-0.13 -1.44 -1.08 -0.09c-0.08,-0.23 -0.19,-0.46 -0.32,-0.68l0.62 -0.88 -1.02 -1.02 -0.88 0.62c-0.22,-0.13 -0.45,-0.24 -0.69,-0.32l-0.09 -1.07 -1.44 -0.12 -0.27 1.03c-0.25,0.04 -0.5,0.11 -0.75,0.2l-0.75 -0.75 -0.03 0.02 -1.15 0.81 0.46 0.96c-0.17,0.2 -0.32,0.41 -0.44,0.64l-1.06 -0.1 -0.37 1.4 0.98 0.44c-0,0.26 0.02,0.51 0.07,0.76l-0.88 0.61 0.61 1.31 1.04 -0.29c0.16,0.2 0.34,0.37 0.54,0.53l-0.28 1.04 1.31 0.61 0.62 -0.9c0.24,0.04 0.49,0.06 0.74,0.06l0.46 0.99 1.4 -0.38 -0.05 -0.56 -0.05 -0.54c0.1,-0.06 0.21,-0.12 0.31,-0.19 0.11,-0.07 0.2,-0.15 0.3,-0.23l0.99 0.47 0.83 -1.19 -0.78 -0.77c0.09,-0.23 0.15,-0.47 0.19,-0.72l1.06 -0.28z"/>
  </g>
 </g>
</svg>
