<?xml version="1.0" encoding="UTF-8"?>
<!DOCTYPE svg PUBLIC "-//W3C//DTD SVG 1.1//EN" "http://www.w3.org/Graphics/SVG/1.1/DTD/svg11.dtd">
<!-- Creator: CorelDRAW 2020 (64 Bit) -->
<svg xmlns="http://www.w3.org/2000/svg" xml:space="preserve" width="49.0978mm" height="55.6607mm" version="1.1" style="shape-rendering:geometricPrecision; text-rendering:geometricPrecision; image-rendering:optimizeQuality; fill-rule:evenodd; clip-rule:evenodd"
viewBox="0 0 337.36 382.45"
 xmlns:xlink="http://www.w3.org/1999/xlink"
 xmlns:xodm="http://www.corel.com/coreldraw/odm/2003">
 <defs>
  <style type="text/css">
   <![CDATA[
    .fil1 {fill:#027A7A}
    .fil2 {fill:#00BABA;fill-rule:nonzero}
    .fil0 {fill:#027A7A;fill-rule:nonzero}
    .fil3 {fill:url(#id0)}
    .fil4 {fill:url(#id1)}
   ]]>
  </style>
  <linearGradient id="id0" gradientUnits="userSpaceOnUse" x1="144.67" y1="173.01" x2="144.67" y2="-221.08">
   <stop offset="0" style="stop-opacity:1; stop-color:#00BABA"/>
   <stop offset="0.541176" style="stop-opacity:1; stop-color:#00BABA"/>
   <stop offset="0.909804" style="stop-opacity:1; stop-color:#00BABA"/>
   <stop offset="1" style="stop-opacity:1; stop-color:#00BABA"/>
  </linearGradient>
  <linearGradient id="id1" gradientUnits="userSpaceOnUse" xlink:href="#id0" x1="145.42" y1="173.01" x2="145.42" y2="-221.08">
  </linearGradient>
 </defs>
 <g id="Camada_x0020_1">
  <metadata id="CorelCorpID_0Corel-Layer"/>
  <g id="_2462965251728">
   <path class="fil0" d="M99.55 364.51c-10.72,2.7 -22.89,1.81 -35.54,-2.65l-0.93 -0.33c-13.53,-4.8 -23.77,-10.65 -31.36,-17.88 -4.44,-4.23 -7.76,-8.9 -9.9,-13.89 -2.17,-5.04 -3.15,-10.67 -2.84,-16.28 0.64,-11.1 6.14,-22.56 14.68,-30.62 3.2,-2.96 8.12,-6.68 13.53,-7.52 1.79,-0.29 3.34,-0.14 4.89,0.4 0.26,0.09 0.5,0.19 0.79,0.31 1.96,0.84 4.08,2.27 6.54,4.34 4.68,4.03 9.05,9.09 13.08,13.92 2.79,3.34 5.56,6.78 8.31,10.21l4.49 5.58c8.35,10.26 17.52,21.15 28.21,31.01 3.84,3.56 7.73,6.85 11.65,9.81 -8.09,6.83 -16.85,11.48 -25.59,13.58zm183.1 -46.14c-2.7,-0.96 -4.99,-2.55 -6.73,-4.58 -2.03,3.48 -4.34,6.9 -6.92,10.17 -2.34,2.96 -4.87,5.82 -7.62,8.55 -8.92,8.83 -19.9,15.8 -31.81,20.14 -11.36,4.23 -24.04,6.42 -37.74,6.59 -10.26,0.21 -20.33,-1.41 -29.96,-4.82 -2.24,-0.81 -4.44,-1.7 -6.63,-2.67 -1.74,-0.79 -3.51,-1.65 -5.27,-2.58 6.25,-7.45 12.08,-16.02 17.69,-26.02 6.47,-11.53 12.17,-24.08 17.42,-38.36 2.36,-6.42 4.58,-13.1 6.61,-19.88 1,-3.34 1.96,-6.71 2.86,-10.12l1.29 -5.11 1.03 -4.41 0.46 -1.98 -1.27 -1.93c-0.74,-1.14 -1.93,-2.05 -3.72,-2.84l-0.48 -0.22 -4.06 -0.84 -0.55 0c-1.46,0.02 -2.96,0.15 -4.11,0.86 -0.57,0.31 -1.36,0.88 -1.95,1.84 -0.36,0.53 -0.64,1.19 -0.79,1.98l-0.83 3.58 -1.22 4.84c-0.84,3.2 -1.72,6.4 -2.67,9.57 -1.89,6.42 -3.98,12.77 -6.26,18.9 -4.89,13.44 -10.21,25.2 -16.23,36.02 -5.52,9.86 -11.2,18.11 -17.31,25.18 -4.06,-3.03 -8.09,-6.42 -12.1,-10.17 -9.95,-9.33 -18.62,-19.74 -26.52,-29.62l-4.27 -5.35c-2.82,-3.56 -5.66,-7.14 -8.57,-10.69 -4.63,-5.56 -9.22,-10.96 -14.85,-15.87 -2.53,-2.17 -5.99,-4.89 -10.33,-6.83 -0.65,-0.28 -1.31,-0.57 -2.01,-0.81 -3.94,-1.38 -8.35,-1.81 -12.43,-1.15 -7.61,1.19 -14.8,4.94 -21.98,11.48 -11.65,10.93 -18.93,25.97 -19.95,41.29 -0.53,8.07 0.91,16.25 4.06,23.63 2.99,6.99 7.54,13.46 13.58,19.24 9.48,9.07 21.43,15.94 37.62,21.67l1.17 0.43c10.6,3.75 26.88,7.3 44.18,2.96 12.53,-3.01 24.87,-9.91 35.9,-20.1 3.27,1.84 6.56,3.51 9.86,4.94 2.22,0.98 4.46,1.86 6.73,2.67 11.53,4.08 24.06,6.04 36.19,5.63 15.3,-0.33 29.52,-3.01 42.3,-7.9 18.62,-6.99 34.82,-19.5 46.38,-35.3 2.63,-3.53 4.99,-7.24 7.09,-11.1 -1.74,-0.02 -3.53,-0.34 -5.25,-0.93z"/>
   <path class="fil0" d="M184.24 198.09c-7.53,-2.67 -14.86,-7.89 -21.2,-15.11 -6.62,-7.62 -11.6,-17.38 -14.43,-28.23 -4.3,-17.1 -4.39,-36.02 -0.29,-59.57 1.68,-9.3 3.99,-18.85 6.89,-28.43 1.41,-4.66 2.95,-9.31 4.57,-13.82 1.95,-5.51 3.78,-9.92 5.73,-13.85 5.41,-10.91 11.85,-18.88 19.7,-24.36 9.84,-6.85 22.07,-8.99 32.72,-5.72l5.04 1.55 -4.59 12.32 -4.55 -1.51c-3.13,-1.03 -7.07,-1.24 -10.81,-0.56 -3.58,0.62 -7.09,2.12 -10.47,4.47 -5.9,4.15 -11.1,10.74 -15.42,19.56 -3.81,7.72 -6.39,16.2 -9.13,25.7 -2.55,9.11 -4.54,18.19 -5.92,26.94 -3.26,21.22 -2.88,38.67 1.17,53.34 2.47,8.85 6.28,16.24 11.36,21.97 4.81,5.6 11.26,9.39 18.08,13.39l6.13 3.63 -3.77 10.63 -4.07 -0.63c-2.26,-0.35 -4.53,-0.93 -6.76,-1.72z"/>
   <path class="fil0" d="M219.96 210.56c-1.89,-0.67 -3.74,-1.47 -5.47,-2.39l-3.8 -2.01 3.9 -10.99 4.21 0.81c8.68,1.69 17.14,3.09 25.24,1.65 7.65,-1.28 15.31,-4.63 22.8,-9.98 12.37,-8.88 23.65,-22.24 34.47,-40.83 4.41,-7.66 8.56,-15.99 12.32,-24.71 3.82,-9.08 7.15,-17.32 9.04,-25.67 2.2,-9.58 2.31,-17.97 0.33,-24.93 -1.11,-3.86 -2.94,-7.32 -5.28,-10.03 -2.5,-2.9 -5.68,-5.23 -8.76,-6.4l-4.47 -1.7 4.19 -12.44 4.89 1.96c10.35,4.17 18.51,13.53 21.83,25.05 2.64,9.18 2.63,19.44 -0.05,31.35 -0.97,4.34 -2.33,8.91 -4.29,14.38 -1.58,4.5 -3.32,9.08 -5.17,13.58 -3.81,9.26 -8.05,18.13 -12.6,26.35 -11.7,20.86 -23.7,35.46 -37.78,45.96 -9.06,6.65 -19.03,11.07 -28.9,12.79 -9.46,1.65 -18.67,1.02 -26.64,-1.81z"/>
   <path class="fil0" d="M208.41 10.08c1.7,-4.8 4.95,-8.02 7.27,-7.2l13.42 9.07c1.45,0.51 1.73,3.45 0.63,6.55l-1 2.82c-1.1,3.11 -3.17,5.2 -4.61,4.69l-16.14 -1.4c-2.31,-0.82 -2.81,-5.38 -1.11,-10.17l1.54 -4.35z"/>
   <path class="fil0" d="M320.53 49.83c1.71,-4.8 1.13,-9.38 -1.26,-10.23l-16.66 -1.59c-1.5,-0.53 -3.61,1.57 -4.7,4.66l-1 2.81c-1.1,3.1 -0.78,6.05 0.72,6.58l13.94 9.26c2.39,0.85 5.72,-2.36 7.42,-7.15l1.54 -4.34z"/>
   <path class="fil0" d="M194.8 246.19c-4.84,-0.31 -8.82,-1.72 -12.77,-4.52 -2.93,-1.04 -4.75,-41.74 -3.61,-50.55 0.87,-6.73 9.29,-9.74 15.69,-7.48l27.85 9.88c6.4,2.26 11.05,9.91 7.48,15.69 -4.67,7.57 -31.71,38.03 -34.64,36.99z"/>
   <path class="fil0" d="M303.22 308.56c-2.36,6.63 -8.64,10.79 -15.33,10.74 -1.74,-0.02 -3.53,-0.34 -5.25,-0.93 -2.7,-0.96 -4.99,-2.55 -6.73,-4.58 -3.72,-4.25 -5.11,-10.31 -3.08,-15.99 2.98,-8.4 12.2,-12.77 20.57,-9.81 8.4,2.98 12.79,12.2 9.81,20.58zm-5.78 -31.94c-14.66,-5.2 -30.77,2.48 -35.97,17.14 -3.89,11 -0.55,22.79 7.52,30.19 2.7,2.48 5.94,4.46 9.62,5.78 0.74,0.26 1.46,0.48 2.2,0.67 14.06,3.72 28.84,-3.89 33.78,-17.81 5.18,-14.68 -2.48,-30.76 -17.14,-35.97z"/>
   <path class="fil1" d="M145.38 130.85c-0.33,-10.77 0.65,-22.5 2.94,-35.67 1.68,-9.3 3.99,-18.85 6.89,-28.43 1.41,-4.66 2.95,-9.31 4.57,-13.82 1.95,-5.51 3.78,-9.92 5.73,-13.85 5.41,-10.91 11.85,-18.88 19.7,-24.36 5.76,-4.01 12.35,-6.41 18.96,-7.05 -1.28,4.63 -2.64,9.24 -4.07,13.84 -2.57,0.8 -5.09,2.06 -7.53,3.76 -5.9,4.15 -11.1,10.74 -15.42,19.56 -3.81,7.72 -6.39,16.2 -9.13,25.7 -2.55,9.11 -4.54,18.19 -5.92,26.94 -1.1,7.12 -1.78,13.83 -2.05,20.14 -4.8,4.48 -9.69,8.89 -14.67,13.24z"/>
   <path class="fil1" d="M224.57 26.08c-0.16,0 -0.31,-0.02 -0.46,-0.08l-16.14 -1.4c-1.23,-0.43 -1.94,-1.93 -2.09,-3.95 2.4,-5.42 4.91,-11.27 7.43,-17.44 0.55,-0.3 1.09,-0.46 1.6,-0.46 0.26,0 0.51,0.04 0.76,0.13l13.42 9.07c1.45,0.51 1.73,3.45 0.63,6.55l-1 2.82c-0.99,2.79 -2.76,4.76 -4.15,4.76z"/>
  </g>
  <g id="_2462965257248">
   <path class="fil2" d="M96.8 361.76c-10.72,2.7 -22.89,1.81 -35.54,-2.65l-0.93 -0.33c-13.53,-4.8 -23.77,-10.65 -31.36,-17.88 -4.44,-4.23 -7.76,-8.9 -9.9,-13.89 -2.17,-5.04 -3.15,-10.67 -2.84,-16.28 0.64,-11.1 6.14,-22.56 14.68,-30.62 3.2,-2.96 8.12,-6.68 13.53,-7.52 1.79,-0.29 3.34,-0.14 4.89,0.4 0.26,0.09 0.5,0.19 0.79,0.31 1.96,0.84 4.08,2.27 6.54,4.34 4.68,4.03 9.05,9.09 13.08,13.92 2.79,3.34 5.56,6.78 8.31,10.21l4.49 5.58c8.35,10.26 17.52,21.15 28.21,31.01 3.84,3.56 7.73,6.85 11.65,9.81 -8.09,6.83 -16.85,11.48 -25.59,13.58zm183.1 -46.14c-2.7,-0.96 -4.99,-2.55 -6.73,-4.58 -2.03,3.48 -4.34,6.9 -6.92,10.17 -2.34,2.96 -4.87,5.82 -7.62,8.55 -8.92,8.83 -19.9,15.8 -31.81,20.14 -11.36,4.23 -24.04,6.42 -37.74,6.59 -10.26,0.21 -20.33,-1.41 -29.96,-4.82 -2.24,-0.81 -4.44,-1.7 -6.63,-2.67 -1.74,-0.79 -3.51,-1.65 -5.27,-2.58 6.25,-7.45 12.08,-16.02 17.69,-26.02 6.47,-11.53 12.17,-24.08 17.42,-38.36 2.36,-6.42 4.58,-13.1 6.61,-19.88 1,-3.34 1.96,-6.71 2.86,-10.12l1.29 -5.11 1.03 -4.41 0.46 -1.98 -1.27 -1.93c-0.74,-1.14 -1.93,-2.05 -3.72,-2.84l-0.48 -0.22 -4.06 -0.84 -0.55 0c-1.46,0.02 -2.96,0.15 -4.11,0.86 -0.57,0.31 -1.36,0.88 -1.95,1.84 -0.36,0.53 -0.64,1.19 -0.79,1.98l-0.83 3.58 -1.22 4.84c-0.84,3.2 -1.72,6.4 -2.67,9.57 -1.89,6.42 -3.98,12.77 -6.26,18.9 -4.89,13.44 -10.21,25.2 -16.23,36.02 -5.52,9.86 -11.2,18.11 -17.31,25.18 -4.06,-3.03 -8.09,-6.42 -12.1,-10.17 -9.95,-9.33 -18.62,-19.74 -26.52,-29.62l-4.27 -5.35c-2.82,-3.56 -5.66,-7.14 -8.57,-10.69 -4.63,-5.56 -9.22,-10.96 -14.85,-15.87 -2.53,-2.17 -5.99,-4.89 -10.33,-6.83 -0.65,-0.28 -1.31,-0.57 -2.01,-0.81 -3.94,-1.38 -8.35,-1.81 -12.43,-1.15 -7.61,1.19 -14.8,4.94 -21.98,11.48 -11.65,10.93 -18.93,25.97 -19.95,41.29 -0.53,8.07 0.91,16.25 4.06,23.63 2.99,6.99 7.54,13.46 13.58,19.24 9.48,9.07 21.43,15.94 37.62,21.67l1.17 0.43c10.6,3.75 26.88,7.3 44.18,2.96 12.53,-3.01 24.87,-9.91 35.9,-20.1 3.27,1.84 6.56,3.51 9.86,4.94 2.22,0.98 4.46,1.86 6.73,2.67 11.53,4.08 24.06,6.04 36.19,5.63 15.3,-0.33 29.52,-3.01 42.3,-7.9 18.62,-6.99 34.82,-19.5 46.38,-35.3 2.63,-3.53 4.99,-7.24 7.09,-11.1 -1.74,-0.02 -3.53,-0.34 -5.25,-0.93z"/>
   <path class="fil2" d="M181.49 195.34c-7.53,-2.67 -14.86,-7.89 -21.2,-15.11 -6.62,-7.62 -11.6,-17.38 -14.43,-28.23 -4.3,-17.1 -4.39,-36.02 -0.29,-59.57 1.68,-9.3 3.99,-18.85 6.89,-28.43 1.41,-4.66 2.95,-9.31 4.57,-13.82 1.95,-5.51 3.78,-9.92 5.73,-13.85 5.41,-10.91 11.85,-18.88 19.7,-24.36 9.84,-6.85 22.07,-8.99 32.72,-5.72l5.04 1.55 -4.59 12.32 -4.55 -1.51c-3.13,-1.03 -7.07,-1.24 -10.81,-0.56 -3.58,0.62 -7.09,2.12 -10.47,4.47 -5.9,4.15 -11.1,10.74 -15.42,19.56 -3.81,7.72 -6.39,16.2 -9.13,25.7 -2.55,9.11 -4.54,18.19 -5.92,26.94 -3.26,21.22 -2.88,38.67 1.17,53.34 2.47,8.85 6.28,16.24 11.36,21.97 4.81,5.6 11.26,9.39 18.08,13.39l6.13 3.63 -3.77 10.63 -4.07 -0.63c-2.26,-0.35 -4.53,-0.93 -6.76,-1.72z"/>
   <path class="fil2" d="M217.21 207.81c-1.89,-0.67 -3.74,-1.47 -5.47,-2.39l-3.8 -2.01 3.9 -10.99 4.21 0.81c8.68,1.69 17.14,3.09 25.24,1.65 7.65,-1.28 15.31,-4.63 22.8,-9.98 12.37,-8.88 23.65,-22.24 34.47,-40.83 4.41,-7.66 8.56,-15.99 12.32,-24.71 3.82,-9.08 7.15,-17.32 9.04,-25.67 2.2,-9.58 2.31,-17.97 0.33,-24.93 -1.11,-3.86 -2.94,-7.32 -5.28,-10.03 -2.5,-2.9 -5.68,-5.23 -8.76,-6.4l-4.47 -1.7 4.19 -12.44 4.89 1.96c10.35,4.17 18.51,13.53 21.83,25.05 2.64,9.18 2.63,19.44 -0.05,31.35 -0.97,4.34 -2.33,8.91 -4.29,14.38 -1.58,4.5 -3.32,9.08 -5.17,13.58 -3.81,9.26 -8.05,18.13 -12.6,26.35 -11.7,20.86 -23.7,35.46 -37.78,45.96 -9.06,6.65 -19.03,11.07 -28.9,12.79 -9.46,1.65 -18.67,1.02 -26.64,-1.81z"/>
   <path class="fil2" d="M205.66 7.33c1.7,-4.8 4.95,-8.02 7.27,-7.2l13.42 9.07c1.45,0.51 1.73,3.45 0.63,6.55l-1 2.82c-1.1,3.11 -3.17,5.2 -4.61,4.69l-16.14 -1.4c-2.31,-0.82 -2.81,-5.38 -1.11,-10.17l1.54 -4.35z"/>
   <path class="fil2" d="M317.78 47.08c1.71,-4.8 1.13,-9.38 -1.26,-10.23l-16.66 -1.59c-1.5,-0.53 -3.61,1.57 -4.7,4.66l-1 2.81c-1.1,3.1 -0.78,6.05 0.72,6.58l13.94 9.26c2.39,0.85 5.72,-2.36 7.42,-7.15l1.54 -4.34z"/>
   <path class="fil2" d="M192.05 243.44c-4.84,-0.31 -8.82,-1.72 -12.77,-4.52 -2.93,-1.04 -4.75,-41.74 -3.61,-50.55 0.87,-6.73 9.29,-9.74 15.69,-7.48l27.85 9.88c6.4,2.26 11.05,9.91 7.48,15.69 -4.67,7.57 -31.71,38.03 -34.64,36.99z"/>
   <path class="fil2" d="M300.47 305.82c-2.36,6.63 -8.64,10.79 -15.33,10.74 -1.74,-0.02 -3.53,-0.34 -5.25,-0.93 -2.7,-0.96 -4.99,-2.55 -6.73,-4.58 -3.72,-4.25 -5.11,-10.31 -3.08,-15.99 2.98,-8.4 12.2,-12.77 20.57,-9.81 8.4,2.98 12.79,12.2 9.81,20.58zm-5.78 -31.94c-14.66,-5.2 -30.77,2.48 -35.97,17.14 -3.89,11 -0.55,22.79 7.52,30.19 2.7,2.48 5.94,4.46 9.62,5.78 0.74,0.26 1.46,0.48 2.2,0.67 14.06,3.72 28.84,-3.89 33.78,-17.81 5.18,-14.68 -2.48,-30.76 -17.14,-35.97z"/>
   <path class="fil3" d="M142.63 128.11c-0.33,-10.77 0.65,-22.5 2.94,-35.67 1.68,-9.3 3.99,-18.85 6.89,-28.43 1.41,-4.66 2.95,-9.31 4.57,-13.82 1.95,-5.51 3.78,-9.92 5.73,-13.85 5.41,-10.91 11.85,-18.88 19.7,-24.36 5.76,-4.01 12.35,-6.41 18.96,-7.05 -1.28,4.63 -2.64,9.24 -4.07,13.84 -2.57,0.8 -5.09,2.06 -7.53,3.76 -5.9,4.15 -11.1,10.74 -15.42,19.56 -3.81,7.72 -6.39,16.2 -9.13,25.7 -2.55,9.11 -4.54,18.19 -5.92,26.94 -1.1,7.12 -1.78,13.83 -2.05,20.14 -4.8,4.48 -9.69,8.89 -14.67,13.24z"/>
   <path class="fil4" d="M221.82 23.33c-0.16,0 -0.31,-0.02 -0.46,-0.08l-16.14 -1.4c-1.23,-0.43 -1.94,-1.93 -2.09,-3.95 2.4,-5.42 4.91,-11.27 7.43,-17.44 0.55,-0.3 1.09,-0.46 1.6,-0.46 0.26,0 0.51,0.04 0.76,0.13l13.42 9.07c1.45,0.51 1.73,3.45 0.63,6.55l-1 2.82c-0.99,2.79 -2.76,4.76 -4.15,4.76z"/>
  </g>
 </g>
</svg>
