<?xml version="1.0" encoding="utf-8"?>
<svg viewBox="0 0 210 125" style="shape-rendering:geometricPrecision; text-rendering:geometricPrecision; image-rendering:optimizeQuality; fill-rule:evenodd; clip-rule:evenodd" xmlns="http://www.w3.org/2000/svg" xmlns:xlink="http://www.w3.org/1999/xlink" xmlns:bx="https://boxy-svg.com">
  <defs>
    <linearGradient id="id1" gradientUnits="userSpaceOnUse" x1="8913.87" y1="14729" x2="8913.87" y2="11886" xlink:href="#id0"/>
    <linearGradient id="id0" gradientUnits="userSpaceOnUse" x1="8924.16" y1="14729" x2="8924.16" y2="11886">
      <stop offset="0" style="stop-opacity:1; stop-color:#00BABA"/>
      <stop offset="0.5412" style="stop-opacity:1; stop-color:#00BABA"/>
      <stop offset="0.9098" style="stop-opacity:1; stop-color:#00BABA"/>
      <stop offset="1" style="stop-opacity:1; stop-color:#00BABA"/>
    </linearGradient>
    <style type="text/css">
   
    .fil0 {fill:#00BABA;fill-rule:nonzero}
    .fil3 {fill:#027A7A;fill-rule:nonzero}
    .fil2 {fill:url(#id0)}
    .fil1 {fill:url(#id1)}
   
  </style>
  </defs>
  <g id="Camada_x0020_1" style="" transform="matrix(0.037722, 0, 0, 0.037603, -292.321655, -497.698608)" bx:origin="0.938193 0.333012">
    <g id="_1702793977296">
      <g id="_1681645138048">
        <path class="fil0" d="M8566.71 16090.68c-77.31,19.44 -165.13,13.06 -256.39,-19.12l-6.71 -2.41c-97.63,-34.62 -171.49,-76.8 -226.26,-128.98 -32.01,-30.47 -55.95,-64.22 -71.44,-100.2 -15.67,-36.33 -22.75,-76.97 -20.5,-117.43 4.65,-80.07 44.26,-162.71 105.9,-220.92 23.08,-21.33 58.54,-48.21 97.62,-54.23 12.93,-2.06 24.1,-1.03 35.31,2.92 1.88,0.69 3.62,1.37 5.66,2.24 14.13,6.04 29.45,16.37 47.2,31.34 33.75,29.1 65.26,65.61 94.36,100.39 20.12,24.09 40.11,48.89 59.92,73.68l32.36 40.29c60.26,74.04 126.38,152.57 203.51,223.67 27.73,25.66 55.8,49.41 84.04,70.78 -58.37,49.24 -121.57,82.82 -184.58,97.98zm1320.83 -332.84c-19.46,-6.9 -35.99,-18.43 -48.56,-33.06 -14.63,25.13 -31.33,49.77 -49.94,73.34 -16.87,21.34 -35.13,42.01 -54.94,61.65 -64.38,63.72 -143.58,113.99 -229.51,145.31 -81.95,30.5 -173.39,46.32 -272.22,47.55 -74.04,1.53 -146.69,-10.18 -216.1,-34.78 -16.19,-5.88 -32.01,-12.24 -47.85,-19.29 -12.58,-5.69 -25.33,-11.89 -38.06,-18.61 45.12,-53.73 87.12,-115.53 127.59,-187.67 46.67,-83.17 87.81,-173.75 125.69,-276.71 17.04,-46.32 33.06,-94.53 47.7,-143.43 7.24,-24.1 14.11,-48.39 20.65,-72.99l9.3 -36.87 7.4 -31.84 3.29 -14.3 -9.13 -13.96c-5.34,-8.25 -13.96,-14.79 -26.86,-20.47l-3.44 -1.56 -29.28 -6.03 -3.95 0c-10.53,0.17 -21.37,1.05 -29.64,6.21 -4.11,2.24 -9.79,6.38 -14.09,13.25 -2.61,3.8 -4.65,8.6 -5.7,14.29l-6.02 25.84 -8.78 34.94c-6.03,23.1 -12.4,46.17 -19.29,69.06 -13.6,46.32 -28.74,92.11 -45.13,136.37 -35.26,96.94 -73.66,181.82 -117.05,259.83 -39.8,71.09 -80.77,130.67 -124.85,181.64 -29.27,-21.87 -58.37,-46.3 -87.29,-73.35 -71.8,-67.32 -134.31,-142.39 -191.3,-213.68l-30.83 -38.58c-20.31,-25.65 -40.81,-51.48 -61.79,-77.11 -33.42,-40.13 -66.49,-79.06 -107.13,-114.52 -18.25,-15.67 -43.2,-35.3 -74.54,-49.26 -4.65,-2.05 -9.48,-4.11 -14.47,-5.84 -28.41,-9.98 -60.26,-13.08 -89.69,-8.27 -54.93,8.62 -106.77,35.65 -158.59,82.83 -84.03,78.87 -136.54,187.33 -143.94,297.88 -3.8,58.19 6.54,117.26 29.25,170.47 21.55,50.43 54.42,97.1 97.98,138.77 68.37,65.44 154.61,115.03 271.37,156.35l8.43 3.09c76.44,27.04 193.88,52.69 318.71,21.35 90.41,-21.7 179.41,-71.47 258.98,-144.97 23.57,13.25 47.35,25.32 71.11,35.63 16,7.06 32.19,13.45 48.54,19.29 83.17,29.45 173.57,43.58 261.04,40.64 110.37,-2.4 212.98,-21.7 305.11,-56.99 134.3,-50.45 251.21,-140.68 334.55,-254.65 18.96,-25.5 36,-52.2 51.13,-80.07 -12.56,-0.18 -25.46,-2.43 -37.86,-6.72z"/>
        <path class="fil0" d="M9177.69 14890.13c-54.3,-19.26 -107.21,-56.9 -152.94,-108.98 -47.78,-54.95 -83.7,-125.35 -104.07,-203.67 -31.04,-123.37 -31.67,-259.83 -2.1,-429.71 12.08,-67.06 28.77,-135.97 49.68,-205.06 10.14,-33.61 21.28,-67.18 32.98,-99.73 14.09,-39.78 27.24,-71.57 41.35,-99.88 39.01,-78.72 85.51,-136.23 142.09,-175.75 71,-49.42 159.23,-64.84 236.05,-41.25l36.37 11.15 -33.08 88.85 -32.83 -10.86c-22.59,-7.46 -50.99,-8.96 -77.95,-4.02 -25.86,4.48 -51.16,15.3 -75.51,32.23 -42.59,29.96 -80.06,77.48 -111.2,141.11 -27.47,55.68 -46.08,116.86 -65.86,185.38 -18.36,65.74 -32.77,131.23 -42.7,194.34 -23.52,153.05 -20.75,278.99 8.45,384.8 17.78,63.84 45.32,117.16 81.92,158.47 34.71,40.42 81.22,67.71 130.45,96.62l44.23 26.17 -27.2 76.71 -29.36 -4.52c-16.3,-2.52 -32.7,-6.69 -48.77,-12.4z"/>
        <path class="fil0" d="M9435.33 14980.07c-13.66,-4.84 -26.98,-10.62 -39.45,-17.24l-27.43 -14.47 28.1 -79.27 30.33 5.86c62.61,12.19 123.63,22.29 182.09,11.87 10.04,-1.67 20.08,-3.85 30.11,-6.51 7.72,9.86 19.09,16.73 32.08,18.56l0 84.22c-14.53,4.13 -29.09,7.48 -43.62,10.02 -68.25,11.89 -134.68,7.36 -192.21,-13.04zm481.41 -304.18c24.09,-30.01 47.73,-63.07 71.02,-99.35 18.77,11.26 40.26,20.22 64.51,26.85 10.32,2.83 21.11,5.25 32.37,7.25 -30.59,51.19 -61.62,96.71 -93.69,137.29 -13.41,1.73 -26.05,4.22 -37.92,7.48 -14.01,3.85 -26.82,8.73 -38.4,14.66 4.09,-7.21 6.43,-15.55 6.43,-24.43l0 -49.48c0,-7.22 -1.55,-14.08 -4.32,-20.27zm272.04 -617.71c0.26,-29.42 -3.12,-56.55 -10.15,-81.2 -8.01,-27.82 -21.19,-52.84 -38.11,-72.34 -18.02,-20.95 -41.01,-37.73 -63.18,-46.16l-32.25 -12.28 30.22 -89.73 35.25 14.16c74.7,30.05 133.56,97.59 157.46,180.7 10.55,36.61 15.22,75.59 14.03,117.67 -27.95,-6.43 -59.04,-10.04 -93.27,-10.82z"/>
        <path class="fil0" d="M9352.01 13533.86c12.25,-34.63 35.74,-57.88 52.42,-51.96l96.79 65.45c10.44,3.7 12.48,24.9 4.54,47.23l-7.18 20.32c-7.96,22.4 -22.84,37.48 -33.28,33.8l-116.4 -10.08c-16.69,-5.9 -20.25,-38.83 -8,-73.38l11.11 -31.38z"/>
        <path class="fil0" d="M10160.87 13820.62c12.31,-34.66 8.16,-67.67 -9.11,-73.79l-120.18 -11.51c-10.83,-3.81 -26.04,11.3 -33.93,33.63l-7.22 20.28c-7.92,22.38 -5.61,43.63 5.21,47.48l100.58 66.81c17.28,6.14 41.27,-17 53.54,-51.56l11.11 -31.34z"/>
        <path class="fil0" d="M9253.84 15237.1c-34.88,-2.25 -63.61,-12.43 -92.1,-32.63 -21.14,-7.48 -34.27,-301.07 -26.07,-364.67 6.28,-48.58 67.03,-70.29 113.19,-53.92l200.91 71.23c46.15,16.34 79.69,71.52 53.97,113.15 -33.7,54.63 -228.76,274.35 -249.9,266.84z"/>
        <path class="fil0" d="M10035.96 15687.08c-17.05,47.86 -62.34,77.81 -110.56,77.48 -12.56,-0.18 -25.46,-2.43 -37.86,-6.72 -19.46,-6.9 -35.99,-18.43 -48.56,-33.06 -26.86,-30.66 -36.86,-74.39 -22.21,-115.38 21.51,-60.59 87.98,-92.11 148.43,-70.76 60.6,21.52 92.27,87.99 70.76,148.44zm-41.67 -230.4c-105.72,-37.53 -221.95,17.91 -259.49,123.63 -28.07,79.38 -3.97,164.44 54.24,217.81 19.45,17.92 42.88,32.2 69.38,41.67 5.36,1.9 10.52,3.44 15.85,4.84 101.42,26.86 208.01,-28.09 243.65,-128.47 37.37,-105.88 -17.92,-221.94 -123.63,-259.48z"/>
        <path class="fil1" d="M8897.35 14405.12c-2.41,-77.7 4.69,-162.3 21.23,-257.35 12.08,-67.06 28.77,-135.97 49.68,-205.06 10.14,-33.61 21.28,-67.18 32.98,-99.73 14.09,-39.78 27.24,-71.57 41.35,-99.88 39.01,-78.72 85.51,-136.23 142.09,-175.75 41.59,-28.96 89.08,-46.23 136.74,-50.83 -9.25,33.4 -19.07,66.67 -29.35,99.83 -18.52,5.75 -36.69,14.82 -54.34,27.1 -42.59,29.96 -80.06,77.48 -111.2,141.11 -27.47,55.68 -46.08,116.86 -65.86,185.38 -18.36,65.74 -32.77,131.23 -42.7,194.34 -7.9,51.39 -12.83,99.74 -14.79,145.29 -34.61,32.31 -69.9,64.12 -105.83,95.55z"/>
        <path class="fil2" d="M9468.61 13649.26c-1.14,0 -2.24,-0.18 -3.31,-0.56l-116.4 -10.08c-8.87,-3.12 -14.03,-13.9 -15.07,-28.48 17.34,-39.07 35.44,-81.29 53.59,-125.83 3.97,-2.17 7.87,-3.32 11.56,-3.32 1.89,0 3.7,0.29 5.45,0.91l96.79 65.45c10.44,3.7 12.48,24.9 4.54,47.23l-7.18 20.32c-7.16,20.12 -19.88,34.36 -29.97,34.36z"/>
      </g>
      <path class="fil0" d="M9670.71 14578.09l-245.66 0c-57.81,0 -86.71,-29.75 -86.71,-89.25l0 -416.52c0,-59.51 28.9,-89.26 86.71,-89.26l230.36 0c39.1,0 73.1,5.81 102,17.43 28.9,11.62 51.71,26.63 68.43,45.05 16.72,18.42 30.04,41.23 39.95,68.43 9.92,27.2 16.44,53.69 19.55,79.48 3.12,25.78 4.68,54.82 4.68,87.13 0,31.73 -1.56,60.63 -4.68,86.7 -3.11,26.07 -9.35,52.7 -18.7,79.9 -9.35,27.21 -21.82,50.01 -37.4,68.43 -15.58,18.42 -36.83,33.44 -63.75,45.05 -26.92,11.62 -58.51,17.43 -94.78,17.43zm-54.4 -505.77l-123.26 0c-17,0 -28.33,2.83 -34,8.5 -5.67,5.66 -8.5,17 -8.5,34l0 331.51c0,17 2.83,28.34 8.5,34.01 5.67,5.66 17,8.5 34,8.5l123.26 0c32.86,0 60.06,-4.96 81.6,-14.88 21.53,-9.92 37.68,-25.08 48.45,-45.48 10.77,-20.4 18.14,-41.93 22.1,-64.6 3.97,-22.67 5.95,-50.44 5.95,-83.3 0,-32.87 -1.98,-60.64 -5.95,-83.31 -3.96,-22.67 -11.33,-44.2 -22.1,-64.6 -10.77,-20.4 -26.92,-35.56 -48.45,-45.48 -21.54,-9.92 -48.74,-14.87 -81.6,-14.87zm390.16 100.3c37.97,-33.43 98.89,-50.15 182.76,-50.15 83.87,0 144.79,16.72 182.76,50.15 37.97,33.44 56.95,93.22 56.95,179.36 0,87.27 -18.84,147.62 -56.52,181.06 -37.69,33.43 -98.75,50.15 -183.19,50.15 -84.43,0 -145.5,-16.72 -183.18,-50.15 -37.69,-33.44 -56.53,-93.79 -56.53,-181.06 0,-86.14 18.99,-145.92 56.95,-179.36zm45.91 179.36c0,56.1 10.2,95.91 30.6,119.43 20.4,23.52 55.82,35.28 106.25,35.28 50.44,0 85.86,-11.76 106.26,-35.28 20.4,-23.52 30.6,-63.33 30.6,-119.43 0,-55.54 -10.2,-94.92 -30.6,-118.16 -20.4,-23.23 -55.82,-34.85 -106.26,-34.85 -50.43,0 -85.85,11.62 -106.25,34.85 -20.4,23.24 -30.6,62.62 -30.6,118.16zm809.23 -147.91l-164.06 0c-20.4,0 -37.68,2.55 -51.85,7.65 -14.17,5.1 -25.36,11.62 -33.58,19.55 -8.21,7.94 -14.59,18.7 -19.12,32.31 -4.54,13.6 -7.37,26.91 -8.5,39.95 -1.14,13.03 -1.7,29.18 -1.7,48.45 0,24.37 1.13,44.34 3.4,59.93 2.26,15.58 7.08,30.88 14.45,45.9 7.36,15.02 19.12,26.07 35.27,33.15 16.15,7.08 36.7,10.63 61.63,10.63l174.26 0 0 76.5 -198.91 0c-71.97,0 -122.12,-19.13 -150.46,-57.38 -28.33,-38.25 -42.5,-94.49 -42.5,-168.73 0,-73.67 14.17,-129.49 42.5,-167.46 28.34,-37.97 78.49,-56.95 150.46,-56.95l188.71 0 0 76.5zm328.96 374.02l-62.05 0c-53.84,0 -94.92,-11.33 -123.26,-34 -28.33,-22.67 -42.5,-60.35 -42.5,-113.06l0 -226.96 -62.05 0 0 -76.5 62.05 0 0 -144.51 99.46 0 0 144.51 128.35 0 0 76.5 -128.35 0 0 206.56c0,32.87 8.5,56.25 25.5,70.13 17,13.88 43.07,20.83 78.2,20.83l24.65 0 0 76.5zm73.95 -405.47c37.97,-33.43 98.89,-50.15 182.76,-50.15 83.87,0 144.79,16.72 182.76,50.15 37.97,33.44 56.95,93.22 56.95,179.36 0,87.27 -18.84,147.62 -56.52,181.06 -37.69,33.43 -98.75,50.15 -183.19,50.15 -84.43,0 -145.5,-16.72 -183.18,-50.15 -37.69,-33.44 -56.53,-93.79 -56.53,-181.06 0,-86.14 18.99,-145.92 56.95,-179.36zm45.91 179.36c0,56.1 10.2,95.91 30.6,119.43 20.4,23.52 55.82,35.28 106.25,35.28 50.44,0 85.86,-11.76 106.26,-35.28 20.4,-23.52 30.6,-63.33 30.6,-119.43 0,-55.54 -10.2,-94.92 -30.6,-118.16 -20.4,-23.23 -55.82,-34.85 -106.26,-34.85 -50.43,0 -85.85,11.62 -106.25,34.85 -20.4,23.24 -30.6,62.62 -30.6,118.16zm441.16 226.11l0 -280.51c0,-59.51 15.02,-102.72 45.05,-129.63 30.04,-26.92 75.66,-40.38 136.86,-40.38l67.15 0 0 76.5 -41.65 0c-39.1,0 -66.87,9.64 -83.3,28.9 -16.44,19.27 -24.65,49.59 -24.65,90.96l0 254.16 -99.46 0zm277.11 0l0 -76.5 253.31 0c11.34,0 21.11,-3.4 29.33,-10.2 8.22,-6.8 12.33,-17 12.33,-30.61 0,-9.06 -1.7,-16.85 -5.11,-23.37 -3.4,-6.52 -9.06,-11.9 -17,-16.15 -7.93,-4.25 -14.73,-7.37 -20.4,-9.35 -5.66,-1.99 -14.73,-4.54 -27.2,-7.65 -12.47,-3.12 -20.68,-5.25 -24.65,-6.38l-86.7 -23.8c-46.47,-12.47 -78.07,-28.76 -94.78,-48.88 -16.72,-20.11 -25.08,-47.46 -25.08,-82.03 0,-40.8 10.2,-70.27 30.6,-88.4 20.4,-18.13 53.27,-27.2 98.61,-27.2l254.16 0 0 76.5 -238.86 0c-17,0 -29.19,2.84 -36.55,8.5 -7.37,5.67 -11.05,16.44 -11.05,32.3 0,11.9 4.1,21.96 12.32,30.18 8.22,8.22 16.15,13.74 23.8,16.58 7.65,2.83 19.13,6.51 34.43,11.05l96.9 27.2c19.84,5.67 35.14,10.34 45.91,14.02 10.76,3.69 23.09,9.07 36.97,16.15 13.89,7.09 24.37,14.88 31.45,23.38 7.09,8.5 13.18,19.55 18.28,33.15 5.1,13.6 7.65,29.19 7.65,46.75 0,37.41 -8.22,65.88 -24.65,85.43 -16.44,19.55 -45.05,29.33 -85.86,29.33l-288.16 0z"/>
      <path class="fil0" d="M9802.92 15117.86l-67.33 0 0 -253.18 -42.58 0 0 -51.79 42.58 0c0,-37.6 11.89,-64.07 35.68,-79.41 23.78,-15.35 56.39,-23.02 97.82,-23.02 1.92,0 4.79,0.1 8.63,0.29 3.84,0.19 6.71,0.29 8.63,0.29l0 49.48c-2.68,-0.38 -6.52,-0.57 -11.51,-0.57 -8.82,0 -16.11,0.19 -21.86,0.57 -5.76,0.39 -12.09,1.63 -18.99,3.74 -6.91,2.11 -12.37,4.9 -16.4,8.35 -4.03,3.45 -7.48,8.63 -10.36,15.53 -2.88,6.91 -4.31,15.16 -4.31,24.75l83.43 0 0 51.79 -83.43 0 0 253.18zm127.74 -274.48c25.7,-22.63 66.94,-33.95 123.71,-33.95 56.78,0 98.01,11.32 123.72,33.95 25.7,22.64 38.55,63.11 38.55,121.42 0,59.07 -12.76,99.93 -38.27,122.56 -25.51,22.64 -66.84,33.95 -124,33.95 -57.16,0 -98.49,-11.31 -124,-33.95 -25.51,-22.63 -38.27,-63.49 -38.27,-122.56 0,-58.31 12.85,-98.78 38.56,-121.42zm31.07 121.42c0,37.98 6.9,64.92 20.71,80.84 13.81,15.92 37.79,23.88 71.93,23.88 34.14,0 58.12,-7.96 71.93,-23.88 13.81,-15.92 20.71,-42.86 20.71,-80.84 0,-37.6 -6.9,-64.26 -20.71,-79.99 -13.81,-15.72 -37.79,-23.59 -71.93,-23.59 -34.14,0 -58.12,7.87 -71.93,23.59 -13.81,15.73 -20.71,42.39 -20.71,79.99zm298.64 153.06l0 -189.89c0,-40.28 10.17,-69.53 30.5,-87.75 20.33,-18.22 51.21,-27.33 92.64,-27.33l45.46 0 0 51.79 -28.2 0c-26.47,0 -45.26,6.52 -56.39,19.56 -11.12,13.04 -16.69,33.57 -16.69,61.57l0 172.05 -67.32 0zm660.01 -60.42l0 60.42 -264.12 0c-39.13,0 -58.69,-20.14 -58.69,-60.42l0 -281.95c0,-40.28 19.56,-60.42 58.69,-60.42l261.81 0 0 60.42 -215.78 0c-11.51,0 -19.18,1.91 -23.02,5.75 -3.83,3.84 -5.75,11.51 -5.75,23.02l0 77.68 238.8 0 0 60.42 -238.8 0 0 86.31c0,11.51 1.92,19.18 5.75,23.02 3.84,3.83 11.51,5.75 23.02,5.75l218.09 0zm78.83 -244.55l85.74 226.14c3.07,8.05 5.75,12.08 8.05,12.08 2.31,0 4.99,-4.03 8.06,-12.08l85.16 -226.14 69.63 0 -116.24 281.38c-3.45,8.44 -8.05,14.77 -13.81,18.99 -5.75,4.22 -10.74,6.61 -14.96,7.19 -4.22,0.57 -10.16,0.86 -17.84,0.86 -7.67,0 -13.61,-0.29 -17.83,-0.86 -4.22,-0.58 -9.31,-2.97 -15.25,-7.19 -5.95,-4.22 -10.65,-10.55 -14.1,-18.99l-116.24 -281.38 69.63 0zm550.1 304.97l-169.17 0c-23.79,0 -43.45,-3.26 -58.98,-9.78 -15.54,-6.52 -27.34,-16.79 -35.39,-30.79 -8.06,-14 -13.52,-29.63 -16.4,-46.89 -2.88,-17.27 -4.32,-39.13 -4.32,-65.6 0,-59.08 11.22,-99.74 33.66,-121.99 22.45,-22.25 60.33,-33.38 113.65,-33.38 47.57,0 83.92,8.73 109.04,26.19 25.13,17.45 37.69,49 37.69,94.65 0,38.36 -15.73,57.55 -47.18,57.55l-177.23 0c0,26.46 4.31,46.12 12.95,58.98 8.63,12.85 26.18,19.27 52.65,19.27l149.03 0 0 51.79zm-214.63 -181.83l139.83 0c9.97,0 14.96,-5.95 14.96,-17.84 0,-18.8 -7.39,-32.99 -22.16,-42.58 -14.77,-9.59 -33.08,-14.39 -54.95,-14.39 -28.39,0 -48.43,5.85 -60.13,17.55 -11.7,11.7 -17.55,30.79 -17.55,57.26zm268.14 181.83l0 -189.89c0,-40.28 10.17,-69.53 30.5,-87.75 20.33,-18.22 51.21,-27.33 92.64,-27.33l45.46 0 0 51.79 -28.2 0c-26.47,0 -45.26,6.52 -56.39,19.56 -11.12,13.04 -16.69,33.57 -16.69,61.57l0 172.05 -67.32 0zm525.35 -304.97l-181.83 403.37 -68.47 0 46.6 -99.55 -135.79 -303.82 69.62 0 97.82 234.19 103.58 -234.19 68.47 0zm44.32 30.49c25.7,-22.63 66.94,-33.95 123.71,-33.95 56.78,0 98.01,11.32 123.72,33.95 25.7,22.64 38.55,63.11 38.55,121.42 0,59.07 -12.76,99.93 -38.27,122.56 -25.51,22.64 -66.84,33.95 -124,33.95 -57.16,0 -98.49,-11.31 -124,-33.95 -25.51,-22.63 -38.27,-63.49 -38.27,-122.56 0,-58.31 12.85,-98.78 38.56,-121.42zm31.07 121.42c0,37.98 6.9,64.92 20.71,80.84 13.81,15.92 37.79,23.88 71.93,23.88 34.14,0 58.12,-7.96 71.93,-23.88 13.81,-15.92 20.71,-42.86 20.71,-80.84 0,-37.6 -6.9,-64.26 -20.71,-79.99 -13.81,-15.72 -37.79,-23.59 -71.93,-23.59 -34.14,0 -58.12,7.87 -71.93,23.59 -13.81,15.73 -20.71,42.39 -20.71,79.99zm298.64 153.06l0 -253.18c0,-34.53 17.26,-51.79 51.79,-51.79l107.03 0c37.59,0 66.74,7.86 87.46,23.59 20.71,15.73 31.07,42.58 31.07,80.56l0 200.82 -67.32 0 0 -182.98c0,-23.79 -4.99,-41.43 -14.96,-52.94 -9.98,-11.51 -26.28,-17.26 -48.91,-17.26l-61.57 0c-11.51,0 -17.27,5.75 -17.27,17.26l0 235.92 -67.32 0zm605.34 0l-169.17 0c-23.79,0 -43.45,-3.26 -58.98,-9.78 -15.54,-6.52 -27.34,-16.79 -35.39,-30.79 -8.06,-14 -13.52,-29.63 -16.4,-46.89 -2.88,-17.27 -4.32,-39.13 -4.32,-65.6 0,-59.08 11.22,-99.74 33.66,-121.99 22.45,-22.25 60.33,-33.38 113.65,-33.38 47.57,0 83.92,8.73 109.04,26.19 25.13,17.45 37.69,49 37.69,94.65 0,38.36 -15.73,57.55 -47.18,57.55l-177.23 0c0,26.46 4.31,46.12 12.95,58.98 8.63,12.85 26.18,19.27 52.65,19.27l149.03 0 0 51.79zm-214.63 -181.83l139.83 0c9.97,0 14.96,-5.95 14.96,-17.84 0,-18.8 -7.39,-32.99 -22.16,-42.58 -14.77,-9.59 -33.08,-14.39 -54.95,-14.39 -28.39,0 -48.43,5.85 -60.13,17.55 -11.7,11.7 -17.55,30.79 -17.55,57.26z"/>
      <path class="fil3" d="M9655.83 14553.21l-245.66 0c-57.81,0 -86.71,-29.75 -86.71,-89.25l0 -416.52c0,-59.51 28.9,-89.26 86.71,-89.26l230.36 0c39.1,0 73.1,5.81 102,17.43 28.9,11.62 51.71,26.63 68.43,45.05 16.72,18.42 30.04,41.23 39.95,68.43 9.92,27.2 16.44,53.69 19.55,79.48 3.12,25.78 4.68,54.82 4.68,87.13 0,31.73 -1.56,60.63 -4.68,86.7 -3.11,26.07 -9.35,52.7 -18.7,79.9 -9.35,27.21 -21.82,50.01 -37.4,68.43 -15.58,18.42 -36.83,33.44 -63.75,45.05 -26.92,11.62 -58.51,17.43 -94.78,17.43zm-54.4 -505.77l-123.26 0c-17,0 -28.33,2.83 -34,8.5 -5.67,5.66 -8.5,17 -8.5,34l0 331.51c0,17 2.83,28.34 8.5,34.01 5.67,5.66 17,8.5 34,8.5l123.26 0c32.86,0 60.06,-4.96 81.6,-14.88 21.53,-9.92 37.68,-25.08 48.45,-45.48 10.77,-20.4 18.14,-41.93 22.1,-64.6 3.97,-22.67 5.95,-50.44 5.95,-83.3 0,-32.87 -1.98,-60.64 -5.95,-83.31 -3.96,-22.67 -11.33,-44.2 -22.1,-64.6 -10.77,-20.4 -26.92,-35.56 -48.45,-45.48 -21.54,-9.92 -48.74,-14.87 -81.6,-14.87zm390.16 100.3c37.97,-33.43 98.89,-50.15 182.76,-50.15 83.87,0 144.79,16.72 182.76,50.15 37.97,33.44 56.95,93.22 56.95,179.36 0,87.27 -18.84,147.62 -56.52,181.06 -37.69,33.43 -98.75,50.15 -183.19,50.15 -84.43,0 -145.5,-16.72 -183.18,-50.15 -37.69,-33.44 -56.53,-93.79 -56.53,-181.06 0,-86.14 18.99,-145.92 56.95,-179.36zm45.91 179.36c0,56.1 10.2,95.91 30.6,119.43 20.4,23.52 55.82,35.28 106.25,35.28 50.44,0 85.86,-11.76 106.26,-35.28 20.4,-23.52 30.6,-63.33 30.6,-119.43 0,-55.54 -10.2,-94.92 -30.6,-118.16 -20.4,-23.23 -55.82,-34.85 -106.26,-34.85 -50.43,0 -85.85,11.62 -106.25,34.85 -20.4,23.24 -30.6,62.62 -30.6,118.16zm809.23 -147.91l-164.06 0c-20.4,0 -37.68,2.55 -51.85,7.65 -14.17,5.1 -25.36,11.62 -33.58,19.55 -8.21,7.94 -14.59,18.7 -19.12,32.31 -4.54,13.6 -7.37,26.91 -8.5,39.95 -1.14,13.03 -1.7,29.18 -1.7,48.45 0,24.37 1.13,44.34 3.4,59.93 2.26,15.58 7.08,30.88 14.45,45.9 7.36,15.02 19.12,26.07 35.27,33.15 16.15,7.08 36.7,10.63 61.63,10.63l174.26 0 0 76.5 -198.91 0c-71.97,0 -122.12,-19.13 -150.46,-57.38 -28.33,-38.25 -42.5,-94.49 -42.5,-168.73 0,-73.67 14.17,-129.49 42.5,-167.46 28.34,-37.97 78.49,-56.95 150.46,-56.95l188.71 0 0 76.5zm328.96 374.02l-62.05 0c-53.84,0 -94.92,-11.33 -123.26,-34 -28.33,-22.67 -42.5,-60.35 -42.5,-113.06l0 -226.96 -62.05 0 0 -76.5 62.05 0 0 -144.51 99.46 0 0 144.51 128.35 0 0 76.5 -128.35 0 0 206.56c0,32.87 8.5,56.25 25.5,70.13 17,13.88 43.07,20.83 78.2,20.83l24.65 0 0 76.5zm73.95 -405.47c37.97,-33.43 98.89,-50.15 182.76,-50.15 83.87,0 144.79,16.72 182.76,50.15 37.97,33.44 56.95,93.22 56.95,179.36 0,87.27 -18.84,147.62 -56.52,181.06 -37.69,33.43 -98.75,50.15 -183.19,50.15 -84.43,0 -145.5,-16.72 -183.18,-50.15 -37.69,-33.44 -56.53,-93.79 -56.53,-181.06 0,-86.14 18.99,-145.92 56.95,-179.36zm45.91 179.36c0,56.1 10.2,95.91 30.6,119.43 20.4,23.52 55.82,35.28 106.25,35.28 50.44,0 85.86,-11.76 106.26,-35.28 20.4,-23.52 30.6,-63.33 30.6,-119.43 0,-55.54 -10.2,-94.92 -30.6,-118.16 -20.4,-23.23 -55.82,-34.85 -106.26,-34.85 -50.43,0 -85.85,11.62 -106.25,34.85 -20.4,23.24 -30.6,62.62 -30.6,118.16zm441.16 226.11l0 -280.51c0,-59.51 15.02,-102.72 45.05,-129.63 30.04,-26.92 75.66,-40.38 136.86,-40.38l67.15 0 0 76.5 -41.65 0c-39.1,0 -66.87,9.64 -83.3,28.9 -16.44,19.27 -24.65,49.59 -24.65,90.96l0 254.16 -99.46 0zm277.11 0l0 -76.5 253.31 0c11.34,0 21.11,-3.4 29.33,-10.2 8.22,-6.8 12.33,-17 12.33,-30.61 0,-9.06 -1.7,-16.85 -5.11,-23.37 -3.4,-6.52 -9.06,-11.9 -17,-16.15 -7.93,-4.25 -14.73,-7.37 -20.4,-9.35 -5.66,-1.99 -14.73,-4.54 -27.2,-7.65 -12.47,-3.12 -20.68,-5.25 -24.65,-6.38l-86.7 -23.8c-46.47,-12.47 -78.07,-28.76 -94.78,-48.88 -16.72,-20.11 -25.08,-47.46 -25.08,-82.03 0,-40.8 10.2,-70.27 30.6,-88.4 20.4,-18.13 53.27,-27.2 98.61,-27.2l254.16 0 0 76.5 -238.86 0c-17,0 -29.19,2.84 -36.55,8.5 -7.37,5.67 -11.05,16.44 -11.05,32.3 0,11.9 4.1,21.96 12.32,30.18 8.22,8.22 16.15,13.74 23.8,16.58 7.65,2.83 19.13,6.51 34.43,11.05l96.9 27.2c19.84,5.67 35.14,10.34 45.91,14.02 10.76,3.69 23.09,9.07 36.97,16.15 13.89,7.09 24.37,14.88 31.45,23.38 7.09,8.5 13.18,19.55 18.28,33.15 5.1,13.6 7.65,29.19 7.65,46.75 0,37.41 -8.22,65.88 -24.65,85.43 -16.44,19.55 -45.05,29.33 -85.86,29.33l-288.16 0z"/>
      <path class="fil3" d="M9788.05 15092.99l-67.33 0 0 -253.18 -42.58 0 0 -51.79 42.58 0c0,-37.6 11.89,-64.07 35.68,-79.41 23.78,-15.35 56.39,-23.02 97.82,-23.02 1.92,0 4.79,0.1 8.63,0.29 3.84,0.19 6.71,0.29 8.63,0.29l0 49.48c-2.68,-0.38 -6.52,-0.57 -11.51,-0.57 -8.82,0 -16.11,0.19 -21.86,0.57 -5.76,0.39 -12.09,1.63 -18.99,3.74 -6.91,2.11 -12.37,4.9 -16.4,8.35 -4.03,3.45 -7.48,8.63 -10.36,15.53 -2.88,6.91 -4.31,15.16 -4.31,24.75l83.43 0 0 51.79 -83.43 0 0 253.18zm127.74 -274.48c25.7,-22.63 66.94,-33.95 123.71,-33.95 56.78,0 98.01,11.32 123.72,33.95 25.7,22.64 38.55,63.11 38.55,121.42 0,59.07 -12.76,99.93 -38.27,122.56 -25.51,22.64 -66.84,33.95 -124,33.95 -57.16,0 -98.49,-11.31 -124,-33.95 -25.51,-22.63 -38.27,-63.49 -38.27,-122.56 0,-58.31 12.85,-98.78 38.56,-121.42zm31.07 121.42c0,37.98 6.9,64.92 20.71,80.84 13.81,15.92 37.79,23.88 71.93,23.88 34.14,0 58.12,-7.96 71.93,-23.88 13.81,-15.92 20.71,-42.86 20.71,-80.84 0,-37.6 -6.9,-64.26 -20.71,-79.99 -13.81,-15.72 -37.79,-23.59 -71.93,-23.59 -34.14,0 -58.12,7.87 -71.93,23.59 -13.81,15.73 -20.71,42.39 -20.71,79.99zm298.64 153.06l0 -189.89c0,-40.28 10.17,-69.53 30.5,-87.75 20.33,-18.22 51.21,-27.33 92.64,-27.33l45.46 0 0 51.79 -28.2 0c-26.47,0 -45.26,6.52 -56.39,19.56 -11.12,13.04 -16.69,33.57 -16.69,61.57l0 172.05 -67.32 0zm660.01 -60.42l0 60.42 -264.12 0c-39.13,0 -58.69,-20.14 -58.69,-60.42l0 -281.95c0,-40.28 19.56,-60.42 58.69,-60.42l261.81 0 0 60.42 -215.78 0c-11.51,0 -19.18,1.91 -23.02,5.75 -3.83,3.84 -5.75,11.51 -5.75,23.02l0 77.68 238.8 0 0 60.42 -238.8 0 0 86.31c0,11.51 1.92,19.18 5.75,23.02 3.84,3.83 11.51,5.75 23.02,5.75l218.09 0zm78.83 -244.55l85.74 226.14c3.07,8.05 5.75,12.08 8.05,12.08 2.31,0 4.99,-4.03 8.06,-12.08l85.16 -226.14 69.63 0 -116.24 281.38c-3.45,8.44 -8.05,14.77 -13.81,18.99 -5.75,4.22 -10.74,6.61 -14.96,7.19 -4.22,0.57 -10.16,0.86 -17.84,0.86 -7.67,0 -13.61,-0.29 -17.83,-0.86 -4.22,-0.58 -9.31,-2.97 -15.25,-7.19 -5.95,-4.22 -10.65,-10.55 -14.1,-18.99l-116.24 -281.38 69.63 0zm550.1 304.97l-169.17 0c-23.79,0 -43.45,-3.26 -58.98,-9.78 -15.54,-6.52 -27.34,-16.79 -35.39,-30.79 -8.06,-14 -13.52,-29.63 -16.4,-46.89 -2.88,-17.27 -4.32,-39.13 -4.32,-65.6 0,-59.08 11.22,-99.74 33.66,-121.99 22.45,-22.25 60.33,-33.38 113.65,-33.38 47.57,0 83.92,8.73 109.04,26.19 25.13,17.45 37.69,49 37.69,94.65 0,38.36 -15.73,57.55 -47.18,57.55l-177.23 0c0,26.46 4.31,46.12 12.95,58.98 8.63,12.85 26.18,19.27 52.65,19.27l149.03 0 0 51.79zm-214.63 -181.83l139.83 0c9.97,0 14.96,-5.95 14.96,-17.84 0,-18.8 -7.39,-32.99 -22.16,-42.58 -14.77,-9.59 -33.08,-14.39 -54.95,-14.39 -28.39,0 -48.43,5.85 -60.13,17.55 -11.7,11.7 -17.55,30.79 -17.55,57.26zm268.14 181.83l0 -189.89c0,-40.28 10.17,-69.53 30.5,-87.75 20.33,-18.22 51.21,-27.33 92.64,-27.33l45.46 0 0 51.79 -28.2 0c-26.47,0 -45.26,6.52 -56.39,19.56 -11.12,13.04 -16.69,33.57 -16.69,61.57l0 172.05 -67.32 0zm525.35 -304.97l-181.83 403.37 -68.47 0 46.6 -99.55 -135.79 -303.82 69.62 0 97.82 234.19 103.58 -234.19 68.47 0zm44.32 30.49c25.7,-22.63 66.94,-33.95 123.71,-33.95 56.78,0 98.01,11.32 123.72,33.95 25.7,22.64 38.55,63.11 38.55,121.42 0,59.07 -12.76,99.93 -38.27,122.56 -25.51,22.64 -66.84,33.95 -124,33.95 -57.16,0 -98.49,-11.31 -124,-33.95 -25.51,-22.63 -38.27,-63.49 -38.27,-122.56 0,-58.31 12.85,-98.78 38.56,-121.42zm31.07 121.42c0,37.98 6.9,64.92 20.71,80.84 13.81,15.92 37.79,23.88 71.93,23.88 34.14,0 58.12,-7.96 71.93,-23.88 13.81,-15.92 20.71,-42.86 20.71,-80.84 0,-37.6 -6.9,-64.26 -20.71,-79.99 -13.81,-15.72 -37.79,-23.59 -71.93,-23.59 -34.14,0 -58.12,7.87 -71.93,23.59 -13.81,15.73 -20.71,42.39 -20.71,79.99zm298.64 153.06l0 -253.18c0,-34.53 17.26,-51.79 51.79,-51.79l107.03 0c37.59,0 66.74,7.86 87.46,23.59 20.71,15.73 31.07,42.58 31.07,80.56l0 200.82 -67.32 0 0 -182.98c0,-23.79 -4.99,-41.43 -14.96,-52.94 -9.98,-11.51 -26.28,-17.26 -48.91,-17.26l-61.57 0c-11.51,0 -17.27,5.75 -17.27,17.26l0 235.92 -67.32 0zm605.34 0l-169.17 0c-23.79,0 -43.45,-3.26 -58.98,-9.78 -15.54,-6.52 -27.34,-16.79 -35.39,-30.79 -8.06,-14 -13.52,-29.63 -16.4,-46.89 -2.88,-17.27 -4.32,-39.13 -4.32,-65.6 0,-59.08 11.22,-99.74 33.66,-121.99 22.45,-22.25 60.33,-33.38 113.65,-33.38 47.57,0 83.92,8.73 109.04,26.19 25.13,17.45 37.69,49 37.69,94.65 0,38.36 -15.73,57.55 -47.18,57.55l-177.23 0c0,26.46 4.31,46.12 12.95,58.98 8.63,12.85 26.18,19.27 52.65,19.27l149.03 0 0 51.79zm-214.63 -181.83l139.83 0c9.97,0 14.96,-5.95 14.96,-17.84 0,-18.8 -7.39,-32.99 -22.16,-42.58 -14.77,-9.59 -33.08,-14.39 -54.95,-14.39 -28.39,0 -48.43,5.85 -60.13,17.55 -11.7,11.7 -17.55,30.79 -17.55,57.26z"/>
    </g>
  </g>
</svg>