<?xml version="1.0" encoding="UTF-8"?>
<!DOCTYPE svg PUBLIC "-//W3C//DTD SVG 1.1//EN" "http://www.w3.org/Graphics/SVG/1.1/DTD/svg11.dtd">
<!-- Creator: CorelDRAW 2020 (64 Bit) -->
<svg xmlns="http://www.w3.org/2000/svg" xml:space="preserve" width="105.896mm" height="55.2607mm" version="1.1" style="shape-rendering:geometricPrecision; text-rendering:geometricPrecision; image-rendering:optimizeQuality; fill-rule:evenodd; clip-rule:evenodd"
viewBox="0 0 1311.11 684.19"
 xmlns:xlink="http://www.w3.org/1999/xlink"
 xmlns:xodm="http://www.corel.com/coreldraw/odm/2003">
 <defs>
  <style type="text/css">
   <![CDATA[
    .fil0 {fill:#00BABA;fill-rule:nonzero}
    .fil3 {fill:#00BABA;fill-rule:nonzero}
    .fil4 {fill:#027A7A;fill-rule:nonzero}
    .fil1 {fill:url(#id0)}
    .fil2 {fill:url(#id1)}
   ]]>
  </style>
  <linearGradient id="id0" gradientUnits="userSpaceOnUse" x1="260.68" y1="311.75" x2="260.68" y2="-398.38">
   <stop offset="0" style="stop-opacity:1; stop-color:#00BABA"/>
   <stop offset="0.541176" style="stop-opacity:1; stop-color:#00BABA"/>
   <stop offset="0.909804" style="stop-opacity:1; stop-color:#00BABA"/>
   <stop offset="1" style="stop-opacity:1; stop-color:#00BABA"/>
  </linearGradient>
  <linearGradient id="id1" gradientUnits="userSpaceOnUse" xlink:href="#id0" x1="262.03" y1="311.75" x2="262.03" y2="-398.38">
  </linearGradient>
 </defs>
 <g id="Camada_x0020_1">
  <metadata id="CorelCorpID_0Corel-Layer"/>
  <g id="_2462963635920">
   <path class="fil0" d="M174.42 651.86c-19.31,4.86 -41.25,3.26 -64.04,-4.77l-1.68 -0.6c-24.39,-8.65 -42.84,-19.18 -56.51,-32.22 -8,-7.61 -13.98,-16.04 -17.85,-25.03 -3.91,-9.08 -5.68,-19.23 -5.12,-29.33 1.16,-20 11.06,-40.64 26.45,-55.18 5.77,-5.33 14.62,-12.04 24.39,-13.54 3.23,-0.52 6.02,-0.26 8.82,0.73 0.47,0.17 0.91,0.34 1.42,0.56 3.53,1.51 7.36,4.09 11.79,7.83 8.43,7.27 16.3,16.39 23.57,25.08 5.03,6.02 10.02,12.21 14.97,18.41l8.08 10.06c15.05,18.49 31.57,38.11 50.83,55.87 6.93,6.41 13.94,12.34 20.99,17.68 -14.58,12.3 -30.36,20.69 -46.11,24.47zm329.93 -83.14c-4.86,-1.72 -8.99,-4.6 -12.13,-8.26 -3.66,6.28 -7.83,12.43 -12.48,18.32 -4.21,5.33 -8.77,10.5 -13.72,15.4 -16.08,15.92 -35.86,28.47 -57.33,36.3 -20.47,7.62 -43.31,11.57 -68,11.88 -18.49,0.38 -36.64,-2.54 -53.98,-8.69 -4.04,-1.47 -8,-3.06 -11.95,-4.82 -3.14,-1.42 -6.33,-2.97 -9.5,-4.65 11.27,-13.42 21.76,-28.86 31.87,-46.88 11.66,-20.77 21.93,-43.4 31.4,-69.12 4.26,-11.57 8.26,-23.61 11.91,-35.83 1.81,-6.02 3.52,-12.09 5.16,-18.23l2.32 -9.21 1.85 -7.95 0.82 -3.57 -2.28 -3.49c-1.33,-2.06 -3.49,-3.69 -6.71,-5.11l-0.86 -0.39 -7.31 -1.51 -0.99 0c-2.63,0.04 -5.34,0.26 -7.4,1.55 -1.03,0.56 -2.45,1.59 -3.52,3.31 -0.65,0.95 -1.16,2.15 -1.42,3.57l-1.5 6.46 -2.19 8.73c-1.51,5.77 -3.1,11.53 -4.82,17.25 -3.4,11.57 -7.18,23.01 -11.27,34.06 -8.81,24.22 -18.4,45.42 -29.24,64.9 -9.94,17.76 -20.18,32.64 -31.19,45.37 -7.31,-5.47 -14.58,-11.57 -21.8,-18.32 -17.93,-16.81 -33.55,-35.57 -47.78,-53.37l-7.7 -9.64c-5.08,-6.41 -10.19,-12.86 -15.44,-19.26 -8.35,-10.02 -16.61,-19.75 -26.76,-28.6 -4.56,-3.91 -10.79,-8.82 -18.62,-12.3 -1.16,-0.51 -2.37,-1.03 -3.62,-1.46 -7.09,-2.49 -15.05,-3.27 -22.4,-2.07 -13.72,2.15 -26.67,8.91 -39.61,20.69 -20.99,19.7 -34.11,46.79 -35.96,74.41 -0.95,14.54 1.63,29.29 7.31,42.58 5.38,12.6 13.59,24.25 24.47,34.66 17.08,16.34 38.62,28.73 67.78,39.05l2.11 0.77c19.1,6.75 48.43,13.16 79.61,5.33 22.58,-5.42 44.81,-17.85 64.69,-36.21 5.89,3.31 11.83,6.32 17.76,8.9 4,1.76 8.04,3.36 12.12,4.82 20.77,7.36 43.36,10.89 65.2,10.15 27.57,-0.6 53.2,-5.42 76.21,-14.23 33.55,-12.6 62.75,-35.14 83.57,-63.61 4.73,-6.37 8.99,-13.04 12.77,-20 -3.14,-0.04 -6.36,-0.61 -9.46,-1.68z"/>
   <path class="fil0" d="M327.03 351.99c-13.56,-4.81 -26.78,-14.21 -38.2,-27.22 -11.94,-13.73 -20.91,-31.31 -26,-50.88 -7.75,-30.82 -7.91,-64.9 -0.52,-107.33 3.02,-16.75 7.19,-33.96 12.41,-51.22 2.53,-8.39 5.32,-16.78 8.24,-24.91 3.52,-9.94 6.81,-17.88 10.33,-24.95 9.75,-19.66 21.36,-34.03 35.49,-43.9 17.73,-12.34 39.77,-16.2 58.96,-10.3l9.08 2.79 -8.26 22.19 -8.2 -2.71c-5.64,-1.86 -12.74,-2.24 -19.47,-1 -6.46,1.12 -12.78,3.82 -18.86,8.05 -10.64,7.48 -20,19.35 -27.78,35.25 -6.86,13.91 -11.51,29.19 -16.45,46.3 -4.59,16.42 -8.19,32.78 -10.67,48.54 -5.87,38.23 -5.18,69.69 2.11,96.12 4.44,15.95 11.32,29.26 20.46,39.58 8.67,10.09 20.29,16.91 32.58,24.13l11.05 6.54 -6.8 19.16 -7.33 -1.13c-4.07,-0.63 -8.17,-1.67 -12.18,-3.1z"/>
   <path class="fil0" d="M391.39 374.45c-3.41,-1.21 -6.74,-2.65 -9.85,-4.31l-6.85 -3.62 7.02 -19.8 7.58 1.46c15.64,3.04 30.88,5.57 45.48,2.97 2.51,-0.42 5.02,-0.96 7.52,-1.63 1.93,2.46 4.77,4.18 8.01,4.64l0 21.04c-3.63,1.03 -7.27,1.87 -10.9,2.5 -17.05,2.97 -33.64,1.84 -48.01,-3.26zm120.25 -75.98c6.02,-7.5 11.92,-15.75 17.74,-24.82 4.69,2.81 10.06,5.05 16.11,6.71 2.58,0.71 5.27,1.31 8.09,1.81 -7.64,12.79 -15.39,24.16 -23.4,34.29 -3.35,0.43 -6.51,1.05 -9.47,1.87 -3.5,0.96 -6.7,2.18 -9.59,3.66 1.02,-1.8 1.61,-3.88 1.61,-6.1l0 -12.36c0,-1.8 -0.39,-3.52 -1.08,-5.06zm67.95 -154.3c0.06,-7.35 -0.78,-14.12 -2.53,-20.28 -2,-6.95 -5.29,-13.2 -9.52,-18.07 -4.5,-5.23 -10.24,-9.43 -15.78,-11.53l-8.05 -3.07 7.55 -22.41 8.81 3.54c18.66,7.51 33.36,24.38 39.33,45.14 2.63,9.14 3.8,18.88 3.5,29.39 -6.98,-1.61 -14.75,-2.51 -23.3,-2.7z"/>
   <path class="fil0" d="M370.58 13.21c3.06,-8.65 8.93,-14.46 13.09,-12.98l24.18 16.35c2.61,0.93 3.12,6.22 1.14,11.8l-1.8 5.08c-1.99,5.6 -5.7,9.36 -8.31,8.44l-29.08 -2.52c-4.17,-1.48 -5.06,-9.7 -2,-18.33l2.77 -7.84z"/>
   <path class="fil0" d="M572.62 84.84c3.07,-8.66 2.04,-16.9 -2.28,-18.43l-30.02 -2.87c-2.7,-0.95 -6.5,2.82 -8.47,8.4l-1.8 5.07c-1.98,5.59 -1.4,10.9 1.3,11.86l25.12 16.69c4.31,1.53 10.31,-4.25 13.37,-12.88l2.77 -7.83z"/>
   <path class="fil0" d="M346.06 438.66c-8.71,-0.56 -15.89,-3.11 -23.01,-8.15 -5.28,-1.87 -8.56,-75.2 -6.51,-91.09 1.57,-12.13 16.74,-17.56 28.27,-13.47l50.19 17.79c11.53,4.08 19.9,17.86 13.48,28.26 -8.42,13.65 -57.14,68.53 -62.42,66.65z"/>
   <path class="fil0" d="M541.42 551.05c-4.26,11.95 -15.57,19.44 -27.62,19.35 -3.14,-0.04 -6.36,-0.61 -9.46,-1.68 -4.86,-1.72 -8.99,-4.6 -12.13,-8.26 -6.71,-7.66 -9.21,-18.58 -5.55,-28.82 5.37,-15.13 21.98,-23.01 37.07,-17.68 15.14,5.38 23.05,21.98 17.68,37.08zm-10.41 -57.55c-26.41,-9.37 -55.44,4.47 -64.82,30.88 -7.01,19.83 -0.99,41.07 13.55,54.41 4.86,4.48 10.71,8.05 17.33,10.41 1.34,0.48 2.63,0.86 3.96,1.21 25.33,6.71 51.96,-7.02 60.86,-32.09 9.33,-26.45 -4.48,-55.44 -30.88,-64.81z"/>
   <path class="fil1" d="M257.01 230.84c-0.6,-19.41 1.17,-40.54 5.3,-64.28 3.02,-16.75 7.19,-33.96 12.41,-51.22 2.53,-8.39 5.32,-16.78 8.24,-24.91 3.52,-9.94 6.81,-17.88 10.33,-24.95 9.75,-19.66 21.36,-34.03 35.49,-43.9 10.39,-7.23 22.25,-11.55 34.16,-12.7 -2.31,8.34 -4.76,16.65 -7.33,24.94 -4.63,1.44 -9.16,3.7 -13.57,6.77 -10.64,7.48 -20,19.35 -27.78,35.25 -6.86,13.91 -11.51,29.19 -16.45,46.3 -4.59,16.42 -8.19,32.78 -10.67,48.54 -1.97,12.84 -3.21,24.91 -3.69,36.29 -8.64,8.07 -17.46,16.02 -26.43,23.87z"/>
   <path class="fil2" d="M399.7 42.03c-0.28,0 -0.56,-0.04 -0.83,-0.14l-29.08 -2.52c-2.21,-0.78 -3.5,-3.47 -3.77,-7.12 4.33,-9.76 8.85,-20.31 13.39,-31.43 0.99,-0.54 1.97,-0.83 2.89,-0.83 0.47,0 0.93,0.07 1.36,0.23l24.18 16.35c2.61,0.93 3.12,6.22 1.14,11.8l-1.8 5.08c-1.79,5.03 -4.97,8.58 -7.49,8.58z"/>
   <path class="fil3" d="M450.18 274.04l-61.36 0c-14.44,0 -21.66,-7.43 -21.66,-22.29l0 -104.04c0,-14.86 7.22,-22.29 21.66,-22.29l57.54 0c9.77,0 18.26,1.45 25.48,4.35 7.22,2.9 12.92,6.65 17.09,11.25 4.18,4.6 7.5,10.3 9.98,17.09 2.48,6.79 4.1,13.41 4.88,19.85 0.78,6.44 1.17,13.69 1.17,21.76 0,7.93 -0.39,15.15 -1.17,21.66 -0.78,6.51 -2.34,13.16 -4.67,19.96 -2.34,6.79 -5.45,12.49 -9.34,17.09 -3.89,4.6 -9.2,8.35 -15.92,11.25 -6.72,2.9 -14.61,4.35 -23.67,4.35zm-13.59 -126.34l-30.79 0c-4.25,0 -7.08,0.71 -8.49,2.12 -1.42,1.42 -2.12,4.25 -2.12,8.49l0 82.81c0,4.25 0.71,7.08 2.12,8.49 1.42,1.42 4.25,2.12 8.49,2.12l30.79 0c8.21,0 15,-1.24 20.38,-3.72 5.38,-2.48 9.41,-6.26 12.1,-11.36 2.69,-5.1 4.53,-10.47 5.52,-16.14 0.99,-5.66 1.49,-12.6 1.49,-20.81 0,-8.21 -0.5,-15.15 -1.49,-20.81 -0.99,-5.66 -2.83,-11.04 -5.52,-16.14 -2.69,-5.1 -6.72,-8.88 -12.1,-11.36 -5.38,-2.48 -12.17,-3.72 -20.38,-3.72zm97.46 25.05c9.48,-8.35 24.7,-12.53 45.65,-12.53 20.95,0 36.17,4.18 45.65,12.53 9.48,8.35 14.23,23.29 14.23,44.8 0,21.8 -4.71,36.87 -14.12,45.23 -9.41,8.35 -24.67,12.53 -45.76,12.53 -21.09,0 -36.34,-4.18 -45.76,-12.53 -9.41,-8.35 -14.12,-23.43 -14.12,-45.23 0,-21.52 4.74,-36.45 14.23,-44.8zm11.47 44.8c0,14.01 2.55,23.96 7.64,29.83 5.1,5.87 13.94,8.81 26.54,8.81 12.6,0 21.45,-2.94 26.54,-8.81 5.1,-5.87 7.64,-15.82 7.64,-29.83 0,-13.87 -2.55,-23.71 -7.64,-29.51 -5.1,-5.8 -13.94,-8.71 -26.54,-8.71 -12.6,0 -21.45,2.9 -26.54,8.71 -5.09,5.8 -7.64,15.64 -7.64,29.51zm202.14 -36.95l-40.98 0c-5.1,0 -9.41,0.64 -12.95,1.91 -3.54,1.27 -6.33,2.9 -8.39,4.88 -2.05,1.98 -3.65,4.67 -4.78,8.07 -1.13,3.4 -1.84,6.72 -2.12,9.98 -0.28,3.26 -0.42,7.29 -0.42,12.1 0,6.09 0.28,11.08 0.85,14.97 0.57,3.89 1.77,7.71 3.61,11.47 1.84,3.75 4.78,6.51 8.81,8.28 4.03,1.77 9.17,2.65 15.39,2.65l43.53 0 0 19.11 -49.69 0c-17.98,0 -30.5,-4.78 -37.58,-14.33 -7.08,-9.55 -10.62,-23.6 -10.62,-42.15 0,-18.4 3.54,-32.35 10.62,-41.83 7.08,-9.48 19.6,-14.23 37.58,-14.23l47.14 0 0 19.11zm82.17 93.42l-15.5 0c-13.45,0 -23.71,-2.83 -30.79,-8.49 -7.08,-5.66 -10.62,-15.08 -10.62,-28.24l0 -56.69 -15.5 0 0 -19.11 15.5 0 0 -36.1 24.84 0 0 36.1 32.06 0 0 19.11 -32.06 0 0 51.6c0,8.21 2.12,14.05 6.37,17.52 4.25,3.47 10.76,5.2 19.53,5.2l6.16 0 0 19.11zm18.47 -101.28c9.48,-8.35 24.7,-12.53 45.65,-12.53 20.95,0 36.17,4.18 45.65,12.53 9.48,8.35 14.23,23.29 14.23,44.8 0,21.8 -4.71,36.87 -14.12,45.23 -9.41,8.35 -24.67,12.53 -45.76,12.53 -21.09,0 -36.34,-4.18 -45.76,-12.53 -9.41,-8.35 -14.12,-23.43 -14.12,-45.23 0,-21.52 4.74,-36.45 14.23,-44.8zm11.47 44.8c0,14.01 2.55,23.96 7.64,29.83 5.1,5.87 13.94,8.81 26.54,8.81 12.6,0 21.45,-2.94 26.54,-8.81 5.1,-5.87 7.64,-15.82 7.64,-29.83 0,-13.87 -2.55,-23.71 -7.64,-29.51 -5.1,-5.8 -13.94,-8.71 -26.54,-8.71 -12.6,0 -21.45,2.9 -26.54,8.71 -5.09,5.8 -7.64,15.64 -7.64,29.51zm110.2 56.48l0 -70.07c0,-14.86 3.75,-25.66 11.25,-32.38 7.5,-6.72 18.9,-10.09 34.18,-10.09l16.77 0 0 19.11 -10.4 0c-9.77,0 -16.7,2.41 -20.81,7.22 -4.11,4.81 -6.16,12.39 -6.16,22.72l0 63.49 -24.84 0zm69.22 0l0 -19.11 63.28 0c2.83,0 5.27,-0.85 7.32,-2.55 2.05,-1.7 3.08,-4.25 3.08,-7.64 0,-2.26 -0.42,-4.21 -1.27,-5.84 -0.85,-1.63 -2.27,-2.97 -4.25,-4.04 -1.98,-1.06 -3.68,-1.84 -5.1,-2.34 -1.42,-0.5 -3.68,-1.13 -6.79,-1.91 -3.11,-0.78 -5.17,-1.31 -6.16,-1.59l-21.66 -5.95c-11.61,-3.11 -19.5,-7.18 -23.67,-12.21 -4.18,-5.03 -6.26,-11.86 -6.26,-20.49 0,-10.19 2.55,-17.55 7.64,-22.08 5.09,-4.53 13.31,-6.79 24.63,-6.79l63.49 0 0 19.11 -59.66 0c-4.25,0 -7.29,0.71 -9.13,2.12 -1.84,1.42 -2.76,4.1 -2.76,8.07 0,2.97 1.03,5.49 3.08,7.54 2.05,2.05 4.03,3.43 5.95,4.14 1.91,0.71 4.78,1.63 8.6,2.76l24.21 6.79c4.95,1.42 8.78,2.58 11.47,3.5 2.69,0.92 5.77,2.27 9.24,4.04 3.47,1.77 6.09,3.72 7.86,5.84 1.77,2.12 3.29,4.88 4.57,8.28 1.27,3.4 1.91,7.29 1.91,11.68 0,9.34 -2.05,16.46 -6.16,21.34 -4.11,4.88 -11.25,7.33 -21.45,7.33l-71.98 0z"/>
   <path class="fil3" d="M483.21 408.87l-16.82 0 0 -63.24 -10.64 0 0 -12.94 10.64 0c0,-9.39 2.97,-16 8.91,-19.84 5.94,-3.83 14.09,-5.75 24.44,-5.75 0.48,0 1.2,0.02 2.16,0.07 0.96,0.05 1.68,0.07 2.16,0.07l0 12.36c-0.67,-0.1 -1.63,-0.14 -2.87,-0.14 -2.2,0 -4.03,0.05 -5.46,0.14 -1.44,0.1 -3.02,0.41 -4.74,0.93 -1.72,0.53 -3.09,1.22 -4.1,2.08 -1.01,0.86 -1.87,2.16 -2.59,3.88 -0.72,1.72 -1.08,3.78 -1.08,6.18l20.84 0 0 12.94 -20.84 0 0 63.24zm31.91 -68.56c6.42,-5.65 16.72,-8.48 30.9,-8.48 14.18,0 24.48,2.83 30.9,8.48 6.42,5.65 9.63,15.76 9.63,30.33 0,14.76 -3.19,24.96 -9.56,30.61 -6.37,5.65 -16.7,8.48 -30.98,8.48 -14.28,0 -24.6,-2.83 -30.97,-8.48 -6.37,-5.65 -9.56,-15.86 -9.56,-30.61 0,-14.57 3.21,-24.67 9.63,-30.33zm7.76 30.33c0,9.49 1.72,16.22 5.17,20.19 3.45,3.98 9.44,5.96 17.97,5.96 8.53,0 14.52,-1.99 17.97,-5.96 3.45,-3.98 5.17,-10.71 5.17,-20.19 0,-9.39 -1.72,-16.05 -5.17,-19.98 -3.45,-3.93 -9.44,-5.89 -17.97,-5.89 -8.53,0 -14.52,1.96 -17.97,5.89 -3.45,3.93 -5.17,10.59 -5.17,19.98zm74.6 38.23l0 -47.43c0,-10.06 2.54,-17.37 7.62,-21.92 5.08,-4.55 12.79,-6.83 23.14,-6.83l11.35 0 0 12.94 -7.04 0c-6.61,0 -11.31,1.63 -14.09,4.89 -2.78,3.26 -4.17,8.38 -4.17,15.38l0 42.98 -16.82 0zm164.86 -15.09l0 15.09 -65.97 0c-9.77,0 -14.66,-5.03 -14.66,-15.09l0 -70.43c0,-10.06 4.89,-15.09 14.66,-15.09l65.4 0 0 15.09 -53.9 0c-2.87,0 -4.79,0.48 -5.75,1.44 -0.96,0.96 -1.44,2.87 -1.44,5.75l0 19.4 59.65 0 0 15.09 -59.65 0 0 21.56c0,2.87 0.48,4.79 1.44,5.75 0.96,0.96 2.87,1.44 5.75,1.44l54.48 0zm19.69 -61.09l21.42 56.49c0.77,2.01 1.44,3.02 2.01,3.02 0.57,0 1.25,-1.01 2.01,-3.02l21.27 -56.49 17.39 0 -29.03 70.29c-0.86,2.11 -2.01,3.69 -3.45,4.74 -1.44,1.05 -2.68,1.65 -3.74,1.8 -1.05,0.14 -2.54,0.22 -4.45,0.22 -1.92,0 -3.4,-0.07 -4.46,-0.22 -1.05,-0.14 -2.32,-0.74 -3.81,-1.8 -1.48,-1.05 -2.66,-2.63 -3.52,-4.74l-29.03 -70.29 17.39 0zm137.41 76.18l-42.26 0c-5.94,0 -10.85,-0.81 -14.73,-2.44 -3.88,-1.63 -6.83,-4.19 -8.84,-7.69 -2.01,-3.5 -3.38,-7.4 -4.1,-11.72 -0.72,-4.31 -1.08,-9.77 -1.08,-16.39 0,-14.76 2.8,-24.91 8.41,-30.47 5.61,-5.56 15.07,-8.34 28.39,-8.34 11.88,0 20.96,2.18 27.24,6.54 6.28,4.36 9.41,12.24 9.41,23.64 0,9.58 -3.93,14.37 -11.79,14.37l-44.27 0c0,6.61 1.08,11.52 3.23,14.73 2.16,3.21 6.54,4.82 13.15,4.82l37.23 0 0 12.94zm-53.61 -45.42l34.93 0c2.49,0 3.74,-1.48 3.74,-4.46 0,-4.69 -1.84,-8.24 -5.53,-10.64 -3.69,-2.4 -8.27,-3.59 -13.73,-3.59 -7.09,0 -12.1,1.46 -15.02,4.38 -2.92,2.92 -4.38,7.69 -4.38,14.3zm66.98 45.42l0 -47.43c0,-10.06 2.54,-17.37 7.62,-21.92 5.08,-4.55 12.79,-6.83 23.14,-6.83l11.35 0 0 12.94 -7.04 0c-6.61,0 -11.31,1.63 -14.09,4.89 -2.78,3.26 -4.17,8.38 -4.17,15.38l0 42.98 -16.82 0zm131.23 -76.18l-45.42 100.76 -17.1 0 11.64 -24.87 -33.92 -75.89 17.39 0 24.44 58.5 25.87 -58.5 17.1 0zm11.07 7.62c6.42,-5.65 16.72,-8.48 30.9,-8.48 14.18,0 24.48,2.83 30.9,8.48 6.42,5.65 9.63,15.76 9.63,30.33 0,14.76 -3.19,24.96 -9.56,30.61 -6.37,5.65 -16.7,8.48 -30.98,8.48 -14.28,0 -24.6,-2.83 -30.97,-8.48 -6.37,-5.65 -9.56,-15.86 -9.56,-30.61 0,-14.57 3.21,-24.67 9.63,-30.33zm7.76 30.33c0,9.49 1.72,16.22 5.17,20.19 3.45,3.98 9.44,5.96 17.97,5.96 8.53,0 14.52,-1.99 17.97,-5.96 3.45,-3.98 5.17,-10.71 5.17,-20.19 0,-9.39 -1.72,-16.05 -5.17,-19.98 -3.45,-3.93 -9.44,-5.89 -17.97,-5.89 -8.53,0 -14.52,1.96 -17.97,5.89 -3.45,3.93 -5.17,10.59 -5.17,19.98zm74.6 38.23l0 -63.24c0,-8.62 4.31,-12.94 12.94,-12.94l26.73 0c9.39,0 16.67,1.96 21.85,5.89 5.17,3.93 7.76,10.64 7.76,20.12l0 50.16 -16.82 0 0 -45.71c0,-5.94 -1.25,-10.35 -3.74,-13.22 -2.49,-2.87 -6.56,-4.31 -12.22,-4.31l-15.38 0c-2.87,0 -4.31,1.44 -4.31,4.31l0 58.93 -16.82 0zm151.21 0l-42.26 0c-5.94,0 -10.85,-0.81 -14.73,-2.44 -3.88,-1.63 -6.83,-4.19 -8.84,-7.69 -2.01,-3.5 -3.38,-7.4 -4.1,-11.72 -0.72,-4.31 -1.08,-9.77 -1.08,-16.39 0,-14.76 2.8,-24.91 8.41,-30.47 5.61,-5.56 15.07,-8.34 28.39,-8.34 11.88,0 20.96,2.18 27.24,6.54 6.28,4.36 9.41,12.24 9.41,23.64 0,9.58 -3.93,14.37 -11.79,14.37l-44.27 0c0,6.61 1.08,11.52 3.23,14.73 2.16,3.21 6.54,4.82 13.15,4.82l37.23 0 0 12.94zm-53.61 -45.42l34.93 0c2.49,0 3.74,-1.48 3.74,-4.46 0,-4.69 -1.84,-8.24 -5.53,-10.64 -3.69,-2.4 -8.27,-3.59 -13.73,-3.59 -7.09,0 -12.1,1.46 -15.02,4.38 -2.92,2.92 -4.38,7.69 -4.38,14.3z"/>
   <path class="fil4" d="M446.47 270.32l-61.36 0c-14.44,0 -21.66,-7.43 -21.66,-22.29l0 -104.04c0,-14.86 7.22,-22.29 21.66,-22.29l57.54 0c9.77,0 18.26,1.45 25.48,4.35 7.22,2.9 12.92,6.65 17.09,11.25 4.18,4.6 7.5,10.3 9.98,17.09 2.48,6.79 4.1,13.41 4.88,19.85 0.78,6.44 1.17,13.69 1.17,21.76 0,7.93 -0.39,15.15 -1.17,21.66 -0.78,6.51 -2.34,13.16 -4.67,19.96 -2.34,6.79 -5.45,12.49 -9.34,17.09 -3.89,4.6 -9.2,8.35 -15.92,11.25 -6.72,2.9 -14.61,4.35 -23.67,4.35zm-13.59 -126.34l-30.79 0c-4.25,0 -7.08,0.71 -8.49,2.12 -1.42,1.42 -2.12,4.25 -2.12,8.49l0 82.81c0,4.25 0.71,7.08 2.12,8.49 1.42,1.42 4.25,2.12 8.49,2.12l30.79 0c8.21,0 15,-1.24 20.38,-3.72 5.38,-2.48 9.41,-6.26 12.1,-11.36 2.69,-5.1 4.53,-10.47 5.52,-16.14 0.99,-5.66 1.49,-12.6 1.49,-20.81 0,-8.21 -0.5,-15.15 -1.49,-20.81 -0.99,-5.66 -2.83,-11.04 -5.52,-16.14 -2.69,-5.1 -6.72,-8.88 -12.1,-11.36 -5.38,-2.48 -12.17,-3.72 -20.38,-3.72zm97.46 25.05c9.48,-8.35 24.7,-12.53 45.65,-12.53 20.95,0 36.17,4.18 45.65,12.53 9.48,8.35 14.23,23.29 14.23,44.8 0,21.8 -4.71,36.87 -14.12,45.23 -9.41,8.35 -24.67,12.53 -45.76,12.53 -21.09,0 -36.34,-4.18 -45.76,-12.53 -9.41,-8.35 -14.12,-23.43 -14.12,-45.23 0,-21.52 4.74,-36.45 14.23,-44.8zm11.47 44.8c0,14.01 2.55,23.96 7.64,29.83 5.1,5.87 13.94,8.81 26.54,8.81 12.6,0 21.45,-2.94 26.54,-8.81 5.1,-5.87 7.64,-15.82 7.64,-29.83 0,-13.87 -2.55,-23.71 -7.64,-29.51 -5.1,-5.8 -13.94,-8.71 -26.54,-8.71 -12.6,0 -21.45,2.9 -26.54,8.71 -5.09,5.8 -7.64,15.64 -7.64,29.51zm202.14 -36.95l-40.98 0c-5.1,0 -9.41,0.64 -12.95,1.91 -3.54,1.27 -6.33,2.9 -8.39,4.88 -2.05,1.98 -3.65,4.67 -4.78,8.07 -1.13,3.4 -1.84,6.72 -2.12,9.98 -0.28,3.26 -0.42,7.29 -0.42,12.1 0,6.09 0.28,11.08 0.85,14.97 0.57,3.89 1.77,7.71 3.61,11.47 1.84,3.75 4.78,6.51 8.81,8.28 4.03,1.77 9.17,2.65 15.39,2.65l43.53 0 0 19.11 -49.69 0c-17.98,0 -30.5,-4.78 -37.58,-14.33 -7.08,-9.55 -10.62,-23.6 -10.62,-42.15 0,-18.4 3.54,-32.35 10.62,-41.83 7.08,-9.48 19.6,-14.23 37.58,-14.23l47.14 0 0 19.11zm82.17 93.42l-15.5 0c-13.45,0 -23.71,-2.83 -30.79,-8.49 -7.08,-5.66 -10.62,-15.08 -10.62,-28.24l0 -56.69 -15.5 0 0 -19.11 15.5 0 0 -36.1 24.84 0 0 36.1 32.06 0 0 19.11 -32.06 0 0 51.6c0,8.21 2.12,14.05 6.37,17.52 4.25,3.47 10.76,5.2 19.53,5.2l6.16 0 0 19.11zm18.47 -101.28c9.48,-8.35 24.7,-12.53 45.65,-12.53 20.95,0 36.17,4.18 45.65,12.53 9.48,8.35 14.23,23.29 14.23,44.8 0,21.8 -4.71,36.87 -14.12,45.23 -9.41,8.35 -24.67,12.53 -45.76,12.53 -21.09,0 -36.34,-4.18 -45.76,-12.53 -9.41,-8.35 -14.12,-23.43 -14.12,-45.23 0,-21.52 4.74,-36.45 14.23,-44.8zm11.47 44.8c0,14.01 2.55,23.96 7.64,29.83 5.1,5.87 13.94,8.81 26.54,8.81 12.6,0 21.45,-2.94 26.54,-8.81 5.1,-5.87 7.64,-15.82 7.64,-29.83 0,-13.87 -2.55,-23.71 -7.64,-29.51 -5.1,-5.8 -13.94,-8.71 -26.54,-8.71 -12.6,0 -21.45,2.9 -26.54,8.71 -5.09,5.8 -7.64,15.64 -7.64,29.51zm110.2 56.48l0 -70.07c0,-14.86 3.75,-25.66 11.25,-32.38 7.5,-6.72 18.9,-10.09 34.18,-10.09l16.77 0 0 19.11 -10.4 0c-9.77,0 -16.7,2.41 -20.81,7.22 -4.11,4.81 -6.16,12.39 -6.16,22.72l0 63.49 -24.84 0zm69.22 0l0 -19.11 63.28 0c2.83,0 5.27,-0.85 7.32,-2.55 2.05,-1.7 3.08,-4.25 3.08,-7.64 0,-2.26 -0.42,-4.21 -1.27,-5.84 -0.85,-1.63 -2.27,-2.97 -4.25,-4.04 -1.98,-1.06 -3.68,-1.84 -5.1,-2.34 -1.42,-0.5 -3.68,-1.13 -6.79,-1.91 -3.11,-0.78 -5.17,-1.31 -6.16,-1.59l-21.66 -5.95c-11.61,-3.11 -19.5,-7.18 -23.67,-12.21 -4.18,-5.03 -6.26,-11.86 -6.26,-20.49 0,-10.19 2.55,-17.55 7.64,-22.08 5.09,-4.53 13.31,-6.79 24.63,-6.79l63.49 0 0 19.11 -59.66 0c-4.25,0 -7.29,0.71 -9.13,2.12 -1.84,1.42 -2.76,4.1 -2.76,8.07 0,2.97 1.03,5.49 3.08,7.54 2.05,2.05 4.03,3.43 5.95,4.14 1.91,0.71 4.78,1.63 8.6,2.76l24.21 6.79c4.95,1.42 8.78,2.58 11.47,3.5 2.69,0.92 5.77,2.27 9.24,4.04 3.47,1.77 6.09,3.72 7.86,5.84 1.77,2.12 3.29,4.88 4.57,8.28 1.27,3.4 1.91,7.29 1.91,11.68 0,9.34 -2.05,16.46 -6.16,21.34 -4.11,4.88 -11.25,7.33 -21.45,7.33l-71.98 0z"/>
   <path class="fil4" d="M479.49 405.15l-16.82 0 0 -63.24 -10.64 0 0 -12.94 10.64 0c0,-9.39 2.97,-16 8.91,-19.84 5.94,-3.83 14.09,-5.75 24.44,-5.75 0.48,0 1.2,0.02 2.16,0.07 0.96,0.05 1.68,0.07 2.16,0.07l0 12.36c-0.67,-0.1 -1.63,-0.14 -2.87,-0.14 -2.2,0 -4.03,0.05 -5.46,0.14 -1.44,0.1 -3.02,0.41 -4.74,0.93 -1.72,0.53 -3.09,1.22 -4.1,2.08 -1.01,0.86 -1.87,2.16 -2.59,3.88 -0.72,1.72 -1.08,3.78 -1.08,6.18l20.84 0 0 12.94 -20.84 0 0 63.24zm31.91 -68.56c6.42,-5.65 16.72,-8.48 30.9,-8.48 14.18,0 24.48,2.83 30.9,8.48 6.42,5.65 9.63,15.76 9.63,30.33 0,14.76 -3.19,24.96 -9.56,30.61 -6.37,5.65 -16.7,8.48 -30.98,8.48 -14.28,0 -24.6,-2.83 -30.97,-8.48 -6.37,-5.65 -9.56,-15.86 -9.56,-30.61 0,-14.57 3.21,-24.67 9.63,-30.33zm7.76 30.33c0,9.49 1.72,16.22 5.17,20.19 3.45,3.98 9.44,5.96 17.97,5.96 8.53,0 14.52,-1.99 17.97,-5.96 3.45,-3.98 5.17,-10.71 5.17,-20.19 0,-9.39 -1.72,-16.05 -5.17,-19.98 -3.45,-3.93 -9.44,-5.89 -17.97,-5.89 -8.53,0 -14.52,1.96 -17.97,5.89 -3.45,3.93 -5.17,10.59 -5.17,19.98zm74.6 38.23l0 -47.43c0,-10.06 2.54,-17.37 7.62,-21.92 5.08,-4.55 12.79,-6.83 23.14,-6.83l11.35 0 0 12.94 -7.04 0c-6.61,0 -11.31,1.63 -14.09,4.89 -2.78,3.26 -4.17,8.38 -4.17,15.38l0 42.98 -16.82 0zm164.86 -15.09l0 15.09 -65.97 0c-9.77,0 -14.66,-5.03 -14.66,-15.09l0 -70.43c0,-10.06 4.89,-15.09 14.66,-15.09l65.4 0 0 15.09 -53.9 0c-2.87,0 -4.79,0.48 -5.75,1.44 -0.96,0.96 -1.44,2.87 -1.44,5.75l0 19.4 59.65 0 0 15.09 -59.65 0 0 21.56c0,2.87 0.48,4.79 1.44,5.75 0.96,0.96 2.87,1.44 5.75,1.44l54.48 0zm19.69 -61.09l21.42 56.49c0.77,2.01 1.44,3.02 2.01,3.02 0.57,0 1.25,-1.01 2.01,-3.02l21.27 -56.49 17.39 0 -29.03 70.29c-0.86,2.11 -2.01,3.69 -3.45,4.74 -1.44,1.05 -2.68,1.65 -3.74,1.8 -1.05,0.14 -2.54,0.22 -4.45,0.22 -1.92,0 -3.4,-0.07 -4.46,-0.22 -1.05,-0.14 -2.32,-0.74 -3.81,-1.8 -1.48,-1.05 -2.66,-2.63 -3.52,-4.74l-29.03 -70.29 17.39 0zm137.41 76.18l-42.26 0c-5.94,0 -10.85,-0.81 -14.73,-2.44 -3.88,-1.63 -6.83,-4.19 -8.84,-7.69 -2.01,-3.5 -3.38,-7.4 -4.1,-11.72 -0.72,-4.31 -1.08,-9.77 -1.08,-16.39 0,-14.76 2.8,-24.91 8.41,-30.47 5.61,-5.56 15.07,-8.34 28.39,-8.34 11.88,0 20.96,2.18 27.24,6.54 6.28,4.36 9.41,12.24 9.41,23.64 0,9.58 -3.93,14.37 -11.79,14.37l-44.27 0c0,6.61 1.08,11.52 3.23,14.73 2.16,3.21 6.54,4.82 13.15,4.82l37.23 0 0 12.94zm-53.61 -45.42l34.93 0c2.49,0 3.74,-1.48 3.74,-4.46 0,-4.69 -1.84,-8.24 -5.53,-10.64 -3.69,-2.4 -8.27,-3.59 -13.73,-3.59 -7.09,0 -12.1,1.46 -15.02,4.38 -2.92,2.92 -4.38,7.69 -4.38,14.3zm66.98 45.42l0 -47.43c0,-10.06 2.54,-17.37 7.62,-21.92 5.08,-4.55 12.79,-6.83 23.14,-6.83l11.35 0 0 12.94 -7.04 0c-6.61,0 -11.31,1.63 -14.09,4.89 -2.78,3.26 -4.17,8.38 -4.17,15.38l0 42.98 -16.82 0zm131.23 -76.18l-45.42 100.76 -17.1 0 11.64 -24.87 -33.92 -75.89 17.39 0 24.44 58.5 25.87 -58.5 17.1 0zm11.07 7.62c6.42,-5.65 16.72,-8.48 30.9,-8.48 14.18,0 24.48,2.83 30.9,8.48 6.42,5.65 9.63,15.76 9.63,30.33 0,14.76 -3.19,24.96 -9.56,30.61 -6.37,5.65 -16.7,8.48 -30.98,8.48 -14.28,0 -24.6,-2.83 -30.97,-8.48 -6.37,-5.65 -9.56,-15.86 -9.56,-30.61 0,-14.57 3.21,-24.67 9.63,-30.33zm7.76 30.33c0,9.49 1.72,16.22 5.17,20.19 3.45,3.98 9.44,5.96 17.97,5.96 8.53,0 14.52,-1.99 17.97,-5.96 3.45,-3.98 5.17,-10.71 5.17,-20.19 0,-9.39 -1.72,-16.05 -5.17,-19.98 -3.45,-3.93 -9.44,-5.89 -17.97,-5.89 -8.53,0 -14.52,1.96 -17.97,5.89 -3.45,3.93 -5.17,10.59 -5.17,19.98zm74.6 38.23l0 -63.24c0,-8.62 4.31,-12.94 12.94,-12.94l26.73 0c9.39,0 16.67,1.96 21.85,5.89 5.17,3.93 7.76,10.64 7.76,20.12l0 50.16 -16.82 0 0 -45.71c0,-5.94 -1.25,-10.35 -3.74,-13.22 -2.49,-2.87 -6.56,-4.31 -12.22,-4.31l-15.38 0c-2.87,0 -4.31,1.44 -4.31,4.31l0 58.93 -16.82 0zm151.21 0l-42.26 0c-5.94,0 -10.85,-0.81 -14.73,-2.44 -3.88,-1.63 -6.83,-4.19 -8.84,-7.69 -2.01,-3.5 -3.38,-7.4 -4.1,-11.72 -0.72,-4.31 -1.08,-9.77 -1.08,-16.39 0,-14.76 2.8,-24.91 8.41,-30.47 5.61,-5.56 15.07,-8.34 28.39,-8.34 11.88,0 20.96,2.18 27.24,6.54 6.28,4.36 9.41,12.24 9.41,23.64 0,9.58 -3.93,14.37 -11.79,14.37l-44.27 0c0,6.61 1.08,11.52 3.23,14.73 2.16,3.21 6.54,4.82 13.15,4.82l37.23 0 0 12.94zm-53.61 -45.42l34.93 0c2.49,0 3.74,-1.48 3.74,-4.46 0,-4.69 -1.84,-8.24 -5.53,-10.64 -3.69,-2.4 -8.27,-3.59 -13.73,-3.59 -7.09,0 -12.1,1.46 -15.02,4.38 -2.92,2.92 -4.38,7.69 -4.38,14.3z"/>
  </g>
 </g>
</svg>
